<?xml version="1.0" encoding="utf-8"?>
<!-- Generated by IcoMoon.io -->
<!DOCTYPE svg PUBLIC "-//W3C//DTD SVG 1.1//EN" "http://www.w3.org/Graphics/SVG/1.1/DTD/svg11.dtd">
<svg version="1.1" xmlns="http://www.w3.org/2000/svg" xmlns:xlink="http://www.w3.org/1999/xlink" width="32" height="32" viewBox="0 0 32 32">
<g id="icomoon-ignore">
	<line stroke-width="1" x1="" y1="" x2="" y2="" stroke="#449FDB" opacity=""></line>
</g>
	<path d="M10.522 11.878h-0.074c-0.061 0-0.114 0.022-0.156 0.064s-0.065 0.096-0.065 0.157v4.162c0 0.062 0.022 0.115 0.065 0.157s0.095 0.065 0.156 0.065h0.074c0.061 0 0.114-0.022 0.157-0.065s0.064-0.095 0.064-0.157v-4.162c0-0.061-0.022-0.113-0.064-0.157s-0.096-0.064-0.157-0.064z" opacity="1" visibility="false" fill="#000000"></path>
	<path d="M13.837 11.878h-0.074c-0.061 0-0.114 0.022-0.156 0.064s-0.065 0.096-0.065 0.157v4.162c0 0.062 0.022 0.115 0.065 0.157s0.095 0.065 0.156 0.065h0.074c0.061 0 0.114-0.022 0.157-0.065s0.064-0.095 0.064-0.157v-4.162c0-0.061-0.022-0.113-0.064-0.157s-0.095-0.064-0.157-0.064z" opacity="1" visibility="false" fill="#000000"></path>
	<path d="M28.337 0.648h-24.287v24.288h6.373c-2.061 1.677-3.378 4.233-3.378 7.097h18.296c0-2.864-1.317-5.42-3.377-7.097h6.373l-0.001-24.288zM8.809 11.086l-1.234 2.717 1.216 3.472c0.012 0.030 0.009 0.060-0.009 0.088s-0.046 0.042-0.083 0.042h-0.912c-0.037 0-0.070-0.010-0.101-0.033-0.031-0.021-0.052-0.047-0.064-0.077l-0.672-2.082-0.157 0.387v1.676c0 0.086-0.042 0.129-0.129 0.129h-0.819c-0.086 0-0.129-0.043-0.129-0.129v-6.189c0-0.086 0.042-0.129 0.129-0.129h0.819c0.086 0 0.129 0.043 0.129 0.129v1.98l0.848-1.998c0.031-0.074 0.089-0.111 0.175-0.111h0.92c0.037 0 0.061 0.014 0.074 0.042s0.012 0.058-0 0.088zM11.82 16.307c0 0.16-0.031 0.31-0.092 0.452s-0.144 0.264-0.249 0.368c-0.104 0.105-0.227 0.188-0.368 0.248s-0.292 0.092-0.452 0.092h-0.35c-0.16 0-0.31-0.031-0.451-0.092s-0.264-0.143-0.368-0.248c-0.104-0.104-0.188-0.226-0.249-0.368s-0.092-0.292-0.092-0.452v-4.254c0-0.16 0.031-0.31 0.092-0.451s0.144-0.264 0.249-0.368c0.104-0.104 0.227-0.187 0.368-0.249s0.292-0.092 0.451-0.092h0.35c0.16 0 0.31 0.031 0.452 0.092s0.264 0.144 0.368 0.249 0.188 0.227 0.249 0.368c0.061 0.142 0.092 0.292 0.092 0.451v4.254zM15.135 16.307c0 0.16-0.031 0.31-0.092 0.452s-0.144 0.264-0.249 0.368c-0.104 0.105-0.227 0.188-0.368 0.248s-0.292 0.092-0.451 0.092h-0.35c-0.16 0-0.31-0.031-0.451-0.092s-0.264-0.143-0.368-0.248c-0.104-0.104-0.187-0.226-0.248-0.368s-0.092-0.292-0.092-0.452v-4.254c0-0.16 0.031-0.31 0.092-0.451s0.144-0.264 0.248-0.368c0.104-0.104 0.227-0.187 0.368-0.249s0.292-0.092 0.451-0.092h0.35c0.16 0 0.31 0.031 0.451 0.092s0.264 0.144 0.368 0.249 0.187 0.227 0.249 0.368c0.061 0.142 0.092 0.292 0.092 0.451v4.254zM18.432 17.274c0 0.086-0.043 0.129-0.13 0.129h-2.44c-0.037 0-0.066-0.012-0.088-0.037s-0.026-0.056-0.014-0.092l1.28-5.286h-1.178c-0.086 0-0.129-0.043-0.129-0.129v-0.774c0-0.086 0.043-0.129 0.129-0.129h2.422c0.037 0 0.066 0.014 0.088 0.042 0.020 0.028 0.025 0.057 0.013 0.087l-1.28 5.286h1.197c0.086 0 0.13 0.043 0.13 0.129v0.773zM20.2 17.274c0 0.086-0.043 0.129-0.129 0.129h-0.82c-0.086 0-0.128-0.043-0.128-0.129v-6.189c0-0.086 0.042-0.129 0.128-0.129h0.82c0.086 0 0.129 0.043 0.129 0.129v6.189zM23.284 11.906c0 0.086-0.042 0.129-0.128 0.129h-1.050v1.326h0.912c0.086 0 0.128 0.043 0.128 0.129v0.82c0 0.086-0.042 0.129-0.128 0.129h-0.912v1.888h1.050c0.086 0 0.128 0.042 0.128 0.129v0.82c0 0.086-0.042 0.129-0.128 0.129h-1.998c-0.086 0-0.129-0.043-0.129-0.129v-6.189c0-0.086 0.043-0.129 0.129-0.129h1.998c0.086 0 0.128 0.043 0.128 0.129v0.82zM26.508 12.403c0 0.086-0.041 0.141-0.12 0.166l-0.839 0.221c-0.080 0.025-0.12-0.006-0.12-0.092v-0.599c0-0.061-0.022-0.113-0.064-0.157s-0.095-0.064-0.157-0.064h-0.074c-0.061 0-0.113 0.022-0.156 0.064s-0.064 0.096-0.064 0.157v0.838c0.006 0.068 0.019 0.126 0.037 0.175s0.053 0.098 0.102 0.147l1.207 0.903c0.098 0.086 0.16 0.174 0.189 0.262s0.047 0.189 0.060 0.3v1.584c0 0.16-0.030 0.31-0.092 0.451s-0.144 0.264-0.249 0.369c-0.105 0.105-0.227 0.187-0.368 0.248s-0.292 0.092-0.452 0.092h-0.35c-0.159 0-0.309-0.031-0.452-0.092s-0.264-0.144-0.368-0.248c-0.105-0.105-0.188-0.227-0.248-0.369s-0.092-0.291-0.092-0.451v-0.884c0-0.086 0.040-0.141 0.119-0.166l0.838-0.221c0.080-0.024 0.12 0.006 0.12 0.092v1.133c0 0.061 0.022 0.114 0.065 0.157s0.094 0.065 0.156 0.065h0.074c0.061 0 0.114-0.022 0.157-0.065s0.064-0.095 0.064-0.157v-1.216c-0.006-0.080-0.018-0.15-0.038-0.212-0.018-0.061-0.055-0.116-0.11-0.166l-1.188-0.911c-0.092-0.086-0.158-0.172-0.199-0.258s-0.058-0.2-0.058-0.341v-1.105c0-0.16 0.030-0.31 0.092-0.451s0.144-0.264 0.248-0.368c0.104-0.104 0.226-0.187 0.368-0.249s0.292-0.092 0.452-0.092h0.35c0.159 0 0.31 0.031 0.452 0.092s0.264 0.144 0.368 0.249c0.104 0.104 0.187 0.227 0.249 0.368s0.092 0.292 0.092 0.451v0.351h-0z" opacity="1" visibility="false" fill="#000000"></path>
</svg>
