<?xml version="1.0" encoding="utf-8"?>
<!-- Generator: Adobe Illustrator 16.0.4, SVG Export Plug-In . SVG Version: 6.00 Build 0)  -->
<!DOCTYPE svg PUBLIC "-//W3C//DTD SVG 1.1//EN" "http://www.w3.org/Graphics/SVG/1.1/DTD/svg11.dtd">
<svg version="1.1" id="Layer_1" xmlns="http://www.w3.org/2000/svg" xmlns:xlink="http://www.w3.org/1999/xlink" x="0px" y="0px"
	 width="80px" height="80px" viewBox="0 0 80 80" enable-background="new 0 0 80 80" xml:space="preserve">
<g>
	<path fill="#231F20" d="M53.432,35.126h-0.644v4.03h0.644c0.135,0,0.248-0.046,0.34-0.14c0.095-0.094,0.142-0.208,0.142-0.341
		v-3.069c0-0.133-0.047-0.247-0.142-0.341C53.68,35.173,53.564,35.126,53.432,35.126z"/>
	<path fill="#231F20" d="M19.017,35.126h-0.641v4.03h0.641c0.134,0,0.248-0.046,0.341-0.14c0.094-0.094,0.141-0.208,0.141-0.341
		v-3.069c0-0.133-0.046-0.247-0.141-0.341C19.265,35.173,19.151,35.126,19.017,35.126z"/>
	<path fill="#231F20" d="M25.936,34.985h-0.16c-0.134,0-0.248,0.047-0.341,0.141c-0.093,0.094-0.141,0.207-0.141,0.341v9.065
		c0,0.135,0.048,0.247,0.141,0.341c0.093,0.093,0.208,0.141,0.341,0.141h0.16c0.134,0,0.248-0.048,0.341-0.141
		c0.093-0.094,0.141-0.206,0.141-0.341v-9.065c0-0.134-0.048-0.247-0.141-0.341C26.184,35.032,26.07,34.985,25.936,34.985z"/>
	<path fill="#231F20" d="M9.15,0v80h61.227V0H9.15z M21.845,38.776c0,0.348-0.067,0.676-0.2,0.983
		c-0.135,0.307-0.315,0.575-0.542,0.802c-0.227,0.228-0.495,0.408-0.802,0.543c-0.308,0.133-0.636,0.199-0.983,0.199h-0.942v5.437
		c0,0.188-0.094,0.28-0.281,0.28H16.31c-0.186,0-0.28-0.094-0.28-0.28V33.261c0-0.188,0.094-0.281,0.28-0.281h3.009
		c0.347,0,0.675,0.066,0.983,0.2c0.307,0.134,0.575,0.314,0.802,0.542s0.407,0.495,0.542,0.803c0.133,0.307,0.2,0.634,0.2,0.983
		L21.845,38.776L21.845,38.776z M28.765,44.633c0,0.348-0.067,0.674-0.201,0.981c-0.134,0.309-0.314,0.575-0.541,0.803
		c-0.228,0.228-0.495,0.408-0.802,0.541c-0.308,0.135-0.636,0.202-0.983,0.202h-0.763c-0.347,0-0.674-0.067-0.982-0.202
		c-0.308-0.133-0.575-0.313-0.802-0.541c-0.228-0.228-0.408-0.494-0.542-0.803c-0.134-0.308-0.2-0.636-0.2-0.981v-9.266
		c0-0.348,0.066-0.676,0.2-0.983c0.134-0.307,0.314-0.575,0.542-0.803c0.227-0.226,0.494-0.406,0.802-0.541
		c0.309-0.133,0.635-0.2,0.982-0.2h0.763c0.347,0,0.675,0.067,0.983,0.2c0.307,0.135,0.574,0.315,0.802,0.541
		c0.227,0.228,0.407,0.496,0.541,0.803c0.134,0.308,0.201,0.635,0.201,0.983V44.633z M35.884,36.129
		c0,0.188-0.087,0.309-0.261,0.361l-1.826,0.481c-0.173,0.054-0.26-0.012-0.26-0.2v-1.303c0-0.134-0.047-0.247-0.141-0.341
		c-0.093-0.094-0.208-0.141-0.341-0.141h-0.161c-0.134,0-0.248,0.047-0.341,0.141c-0.093,0.094-0.141,0.207-0.141,0.341v1.824
		c0.014,0.148,0.041,0.274,0.081,0.382c0.04,0.107,0.113,0.214,0.22,0.321l2.627,1.965c0.213,0.187,0.351,0.378,0.411,0.572
		c0.06,0.192,0.104,0.411,0.131,0.651v3.449c0,0.348-0.067,0.674-0.201,0.981c-0.134,0.309-0.314,0.575-0.542,0.803
		c-0.227,0.228-0.494,0.408-0.802,0.541c-0.308,0.135-0.635,0.202-0.982,0.202h-0.763c-0.347,0-0.675-0.067-0.982-0.202
		c-0.308-0.133-0.576-0.313-0.802-0.541c-0.228-0.228-0.408-0.494-0.542-0.803c-0.134-0.308-0.201-0.636-0.201-0.981v-1.927
		c0-0.187,0.087-0.308,0.262-0.36l1.825-0.48c0.172-0.053,0.26,0.014,0.26,0.201v2.467c0,0.135,0.047,0.246,0.141,0.341
		c0.093,0.093,0.207,0.142,0.341,0.142h0.161c0.133,0,0.248-0.049,0.341-0.142c0.093-0.095,0.141-0.206,0.141-0.341v-2.647
		c-0.014-0.173-0.041-0.327-0.081-0.461c-0.04-0.135-0.119-0.255-0.24-0.36l-2.586-1.985c-0.201-0.187-0.345-0.375-0.432-0.562
		c-0.087-0.188-0.131-0.435-0.131-0.742v-2.406c0-0.348,0.067-0.676,0.201-0.983c0.134-0.307,0.314-0.575,0.542-0.803
		c0.226-0.226,0.494-0.406,0.802-0.541c0.307-0.133,0.635-0.2,0.982-0.2h0.763c0.347,0,0.674,0.067,0.982,0.2
		c0.308,0.135,0.575,0.315,0.802,0.541c0.228,0.228,0.408,0.496,0.542,0.803c0.134,0.308,0.201,0.635,0.201,0.983V36.129
		L35.884,36.129z M42.421,35.046c0,0.188-0.094,0.282-0.278,0.282h-1.426v11.411c0,0.188-0.093,0.28-0.28,0.28h-1.786
		c-0.067,0-0.131-0.027-0.19-0.08c-0.061-0.055-0.09-0.119-0.09-0.2V35.328h-1.404c-0.188,0-0.281-0.094-0.281-0.282v-1.785
		c0-0.188,0.093-0.281,0.281-0.281h5.176c0.186,0,0.278,0.093,0.278,0.281V35.046z M48.738,35.046c0,0.188-0.094,0.282-0.28,0.282
		h-2.286v2.888h1.984c0.188,0,0.281,0.093,0.281,0.279v1.786c0,0.188-0.094,0.281-0.281,0.281h-1.984v4.111h2.286
		c0.187,0,0.28,0.094,0.28,0.281v1.784c0,0.188-0.094,0.28-0.28,0.28h-4.353c-0.188,0-0.28-0.094-0.28-0.28V33.261
		c0-0.188,0.094-0.281,0.28-0.281h4.353c0.187,0,0.28,0.093,0.28,0.281V35.046z M56.459,47.02h-1.825
		c-0.079,0-0.155-0.027-0.229-0.08c-0.072-0.055-0.122-0.119-0.15-0.2l-1.465-4.914v5.194l-0.02-0.199
		c-0.025,0.133-0.112,0.199-0.261,0.199h-1.784c-0.188,0-0.281-0.094-0.281-0.28V33.261c0-0.188,0.095-0.281,0.281-0.281h3.008
		c0.348,0,0.677,0.066,0.982,0.2c0.309,0.134,0.575,0.314,0.803,0.542s0.406,0.495,0.541,0.803c0.133,0.307,0.2,0.634,0.2,0.983
		v3.268c0,0.496-0.127,0.94-0.38,1.334c-0.256,0.395-0.589,0.699-1.003,0.912l1.783,5.718C56.701,46.926,56.634,47.02,56.459,47.02z
		 M63.499,36.129c0,0.188-0.087,0.309-0.263,0.361l-1.824,0.481c-0.172,0.054-0.26-0.012-0.26-0.2v-1.303
		c0-0.134-0.047-0.247-0.141-0.341c-0.094-0.094-0.209-0.141-0.342-0.141h-0.16c-0.133,0-0.248,0.047-0.341,0.141
		c-0.094,0.094-0.142,0.207-0.142,0.341v1.824c0.015,0.148,0.039,0.274,0.082,0.382c0.039,0.107,0.111,0.214,0.22,0.321l2.626,1.965
		c0.214,0.187,0.354,0.378,0.412,0.572c0.06,0.192,0.104,0.411,0.131,0.651v3.449c0,0.348-0.066,0.674-0.2,0.981
		c-0.135,0.309-0.313,0.575-0.543,0.803c-0.226,0.228-0.493,0.408-0.801,0.541c-0.31,0.135-0.636,0.202-0.981,0.202h-0.765
		c-0.347,0-0.674-0.067-0.981-0.202c-0.309-0.133-0.576-0.313-0.802-0.541c-0.229-0.228-0.407-0.494-0.543-0.803
		c-0.133-0.308-0.2-0.636-0.2-0.981v-1.927c0-0.187,0.088-0.308,0.262-0.36l1.826-0.48c0.172-0.053,0.26,0.014,0.26,0.201v2.467
		c0,0.135,0.047,0.246,0.141,0.341c0.094,0.093,0.208,0.142,0.342,0.142h0.159c0.134,0,0.248-0.049,0.341-0.142
		c0.094-0.095,0.141-0.206,0.141-0.341v-2.647c-0.014-0.173-0.038-0.327-0.08-0.461c-0.039-0.135-0.119-0.255-0.239-0.36
		l-2.587-1.985c-0.202-0.187-0.346-0.375-0.434-0.562c-0.086-0.188-0.129-0.435-0.129-0.742v-2.406c0-0.348,0.066-0.676,0.199-0.983
		c0.135-0.307,0.314-0.575,0.543-0.803c0.227-0.226,0.493-0.406,0.801-0.541c0.31-0.133,0.637-0.2,0.982-0.2h0.764
		c0.348,0,0.674,0.067,0.982,0.2c0.309,0.135,0.574,0.315,0.801,0.541c0.229,0.228,0.408,0.496,0.543,0.803
		c0.133,0.308,0.2,0.635,0.2,0.983V36.129L63.499,36.129z"/>
</g>
</svg>
