<?xml version="1.0" encoding="utf-8"?>
<!-- Generator: Adobe Illustrator 16.0.4, SVG Export Plug-In . SVG Version: 6.00 Build 0)  -->
<!DOCTYPE svg PUBLIC "-//W3C//DTD SVG 1.1//EN" "http://www.w3.org/Graphics/SVG/1.1/DTD/svg11.dtd">
<svg version="1.1" id="Layer_1" xmlns="http://www.w3.org/2000/svg" xmlns:xlink="http://www.w3.org/1999/xlink" x="0px" y="0px"
	 width="80px" height="80px" viewBox="0 0 80 80" enable-background="new 0 0 80 80" xml:space="preserve">
<g>
	<path fill="#231F20" d="M53.816,34.229h-0.654v4.115h0.654c0.138,0,0.252-0.049,0.35-0.145c0.096-0.095,0.145-0.211,0.145-0.348
		V34.72c0-0.137-0.049-0.254-0.145-0.349C54.068,34.277,53.954,34.229,53.816,34.229z"/>
	<path fill="#231F20" d="M0,22.972V56.5h67.654L80,44.154V22.972H0z M16.362,35.252c0,0.191-0.089,0.314-0.266,0.368l-1.863,0.491
		c-0.177,0.055-0.266-0.013-0.266-0.203v-1.332c0-0.137-0.048-0.252-0.143-0.348c-0.095-0.096-0.212-0.144-0.348-0.144h-0.164
		c-0.137,0-0.253,0.048-0.348,0.144c-0.096,0.096-0.144,0.211-0.144,0.348v1.863c0.013,0.15,0.041,0.279,0.082,0.389
		c0.041,0.11,0.116,0.219,0.225,0.328l2.681,2.005c0.218,0.19,0.358,0.386,0.42,0.583c0.061,0.199,0.105,0.42,0.133,0.666v3.521
		c0,0.354-0.069,0.688-0.205,1.002c-0.137,0.313-0.321,0.588-0.553,0.817c-0.232,0.231-0.505,0.418-0.819,0.554
		c-0.314,0.137-0.648,0.204-1.003,0.204h-0.778c-0.355,0-0.689-0.067-1.002-0.204c-0.314-0.136-0.587-0.32-0.819-0.554
		c-0.232-0.229-0.417-0.504-0.553-0.817c-0.137-0.314-0.205-0.646-0.205-1.002v-1.966c0-0.19,0.089-0.313,0.266-0.368l1.863-0.492
		c0.177-0.056,0.266,0.014,0.266,0.205v2.52c0,0.135,0.048,0.25,0.144,0.348c0.095,0.094,0.211,0.143,0.348,0.143h0.164
		c0.136,0,0.252-0.049,0.348-0.143c0.095-0.098,0.143-0.213,0.143-0.348v-2.703c-0.014-0.178-0.041-0.334-0.082-0.471
		s-0.123-0.26-0.246-0.369l-2.64-2.025c-0.205-0.191-0.352-0.383-0.44-0.574c-0.089-0.191-0.133-0.443-0.133-0.758v-2.455
		c0-0.355,0.068-0.689,0.205-1.004c0.136-0.313,0.32-0.586,0.553-0.818c0.231-0.231,0.504-0.416,0.819-0.553
		c0.313-0.136,0.647-0.205,1.002-0.205h0.778c0.354,0,0.689,0.069,1.003,0.205c0.314,0.137,0.587,0.321,0.819,0.553
		s0.416,0.505,0.553,0.818c0.136,0.314,0.205,0.648,0.205,1.004V35.252z M23.034,34.146c0,0.191-0.096,0.287-0.286,0.287h-1.454
		V46.08c0,0.191-0.096,0.287-0.286,0.287h-1.822c-0.068,0-0.133-0.027-0.194-0.082S18.9,46.162,18.9,46.08V34.434h-1.433
		c-0.191,0-0.287-0.096-0.287-0.287v-1.821c0-0.191,0.095-0.286,0.287-0.286h5.281c0.19,0,0.286,0.095,0.286,0.286V34.146z
		 M26.862,46.08c0,0.191-0.096,0.287-0.287,0.287h-1.822c-0.191,0-0.287-0.096-0.287-0.287V32.325c0-0.191,0.096-0.286,0.287-0.286
		h1.822c0.191,0,0.287,0.095,0.287,0.286V46.08z M34.435,36.111c0,0.191-0.089,0.314-0.266,0.369l-1.862,0.287
		c-0.178,0.055-0.266-0.015-0.266-0.205v-1.986c0-0.137-0.048-0.252-0.144-0.348s-0.211-0.144-0.348-0.144h-0.164
		c-0.137,0-0.252,0.048-0.348,0.144c-0.096,0.096-0.143,0.211-0.143,0.348v9.254c0,0.135,0.047,0.25,0.143,0.348
		c0.096,0.094,0.211,0.143,0.348,0.143h0.164c0.137,0,0.252-0.049,0.348-0.143c0.095-0.098,0.144-0.213,0.144-0.348v-2.867
		c0-0.191,0.088-0.26,0.266-0.205l1.862,0.246c0.177,0.055,0.266,0.178,0.266,0.369v2.559c0,0.355-0.068,0.688-0.205,1.002
		c-0.136,0.314-0.32,0.588-0.552,0.818c-0.232,0.232-0.505,0.418-0.818,0.553c-0.314,0.137-0.648,0.205-1.003,0.205h-0.778
		c-0.355,0-0.689-0.068-1.003-0.205c-0.314-0.135-0.586-0.32-0.819-0.553c-0.232-0.23-0.416-0.504-0.553-0.818
		c-0.136-0.313-0.204-0.646-0.204-1.002v-9.457c0-0.355,0.068-0.689,0.204-1.004c0.137-0.313,0.321-0.586,0.553-0.818
		c0.232-0.231,0.505-0.416,0.819-0.553c0.314-0.136,0.648-0.205,1.003-0.205h0.778c0.355,0,0.689,0.069,1.003,0.205
		c0.313,0.137,0.586,0.321,0.818,0.553c0.232,0.232,0.416,0.505,0.552,0.818c0.137,0.314,0.205,0.648,0.205,1.004V36.111z
		 M42.645,32.325L39.9,38.363l2.702,7.717c0.026,0.068,0.021,0.133-0.021,0.195c-0.041,0.061-0.102,0.092-0.186,0.092h-2.025
		c-0.082,0-0.157-0.023-0.226-0.072c-0.069-0.047-0.115-0.105-0.143-0.174l-1.494-4.627l-0.348,0.861v3.725
		c0,0.191-0.096,0.287-0.287,0.287h-1.822c-0.191,0-0.287-0.096-0.287-0.287V32.325c0-0.191,0.096-0.286,0.287-0.286h1.822
		c0.191,0,0.287,0.095,0.287,0.286v4.4l1.883-4.44c0.068-0.164,0.197-0.246,0.39-0.246h2.047c0.08,0,0.135,0.029,0.164,0.092
		C42.67,32.192,42.67,32.258,42.645,32.325z M49.027,34.146c0,0.191-0.096,0.287-0.286,0.287h-2.333v2.947h2.025
		c0.191,0,0.287,0.096,0.287,0.287v1.82c0,0.191-0.096,0.287-0.287,0.287h-2.025v4.197h2.333c0.19,0,0.286,0.096,0.286,0.287v1.82
		c0,0.191-0.096,0.287-0.286,0.287H44.3c-0.19,0-0.286-0.096-0.286-0.287V32.325c0-0.191,0.096-0.286,0.286-0.286h4.441
		c0.19,0,0.286,0.095,0.286,0.286V34.146z M56.909,46.367h-1.863c-0.082,0-0.161-0.027-0.235-0.082s-0.125-0.123-0.152-0.205
		l-1.495-5.016v5.303l-0.021-0.205c-0.026,0.137-0.117,0.205-0.267,0.205h-1.821c-0.191,0-0.285-0.096-0.285-0.287V32.325
		c0-0.191,0.095-0.286,0.285-0.286h3.07c0.354,0,0.689,0.067,1.003,0.204c0.313,0.136,0.586,0.32,0.819,0.554
		c0.23,0.23,0.414,0.504,0.552,0.818c0.138,0.314,0.204,0.647,0.204,1.002v3.336c0,0.506-0.129,0.959-0.389,1.361
		s-0.602,0.713-1.023,0.932l1.822,5.834C57.154,46.271,57.086,46.367,56.909,46.367z M64.093,35.252
		c0,0.191-0.089,0.314-0.266,0.368l-1.863,0.491c-0.177,0.055-0.266-0.013-0.266-0.203v-1.332c0-0.137-0.048-0.252-0.144-0.348
		c-0.097-0.096-0.213-0.144-0.35-0.144h-0.162c-0.137,0-0.253,0.048-0.35,0.144c-0.096,0.096-0.144,0.211-0.144,0.348v1.863
		c0.015,0.15,0.041,0.279,0.082,0.389c0.041,0.11,0.115,0.219,0.226,0.328l2.682,2.005c0.218,0.19,0.357,0.386,0.42,0.583
		c0.062,0.199,0.105,0.42,0.133,0.666v3.521c0,0.354-0.068,0.688-0.203,1.002c-0.139,0.313-0.322,0.588-0.554,0.817
		c-0.231,0.231-0.505,0.418-0.817,0.554c-0.314,0.137-0.648,0.204-1.004,0.204h-0.777c-0.355,0-0.689-0.067-1.004-0.204
		c-0.313-0.136-0.586-0.32-0.818-0.554c-0.232-0.229-0.416-0.504-0.553-0.817c-0.137-0.314-0.204-0.646-0.204-1.002v-1.966
		c0-0.19,0.089-0.313,0.266-0.368l1.863-0.492c0.177-0.056,0.266,0.014,0.266,0.205v2.52c0,0.135,0.048,0.25,0.144,0.348
		c0.097,0.094,0.213,0.143,0.35,0.143h0.162c0.137,0,0.253-0.049,0.35-0.143c0.096-0.098,0.144-0.213,0.144-0.348v-2.703
		c-0.015-0.178-0.041-0.334-0.082-0.471s-0.123-0.26-0.246-0.369l-2.64-2.025c-0.205-0.191-0.354-0.383-0.44-0.574
		c-0.089-0.191-0.133-0.443-0.133-0.758v-2.455c0-0.355,0.067-0.689,0.204-1.004c0.137-0.313,0.32-0.586,0.553-0.818
		c0.232-0.231,0.505-0.416,0.818-0.553c0.313-0.136,0.647-0.205,1.004-0.205h0.777c0.354,0,0.688,0.069,1.004,0.205
		c0.312,0.137,0.586,0.321,0.817,0.553s0.415,0.505,0.554,0.818c0.135,0.314,0.203,0.648,0.203,1.004L64.093,35.252L64.093,35.252z"
		/>
</g>
<polygon fill="#FFFFFF" points="79.438,42.979 66.625,42.979 66.375,43.229 66.375,56.042 66.975,56.046 79.434,43.475 "/>
</svg>
