<?xml version="1.0" encoding="utf-8"?>
<!-- Generator: Adobe Illustrator 16.0.4, SVG Export Plug-In . SVG Version: 6.00 Build 0)  -->
<!DOCTYPE svg PUBLIC "-//W3C//DTD SVG 1.1//EN" "http://www.w3.org/Graphics/SVG/1.1/DTD/svg11.dtd">
<svg version="1.1" id="Layer_1" xmlns="http://www.w3.org/2000/svg" xmlns:xlink="http://www.w3.org/1999/xlink" x="0px" y="0px"
	 width="80px" height="80px" viewBox="0 0 80 80" enable-background="new 0 0 80 80" xml:space="preserve">
<path d="M69.991,33.533l-18.435-5.139c2.363-3.002,3.808-6.919,3.808-11.211c0-9.412-6.893-17.069-15.364-17.069
	c-8.473,0-15.365,7.657-15.365,17.069c0,4.292,1.444,8.208,3.807,11.211l-18.435,5.139l0.103,0.316h-0.103v40.908h8.677V46.267h3.88
	v33.619h17.379h0.112h17.377V46.267h3.881v28.491h8.677V33.85h-0.103L69.991,33.533z M32.995,71.657h-1.395v-11h1.395V71.657z
	 M40,31.724c-7.078,0-12.835-6.523-12.835-14.541c0-8.018,5.758-14.54,12.835-14.54c7.077,0,12.835,6.522,12.835,14.54
	C52.835,25.2,47.077,31.724,40,31.724z M49.111,71.657h-1.396v-11h1.396V71.657z"/>
</svg>
