<?xml version="1.0" encoding="utf-8"?>
<!-- Generator: Adobe Illustrator 16.0.4, SVG Export Plug-In . SVG Version: 6.00 Build 0)  -->
<!DOCTYPE svg PUBLIC "-//W3C//DTD SVG 1.1//EN" "http://www.w3.org/Graphics/SVG/1.1/DTD/svg11.dtd">
<svg version="1.1" id="Layer_1" xmlns="http://www.w3.org/2000/svg" xmlns:xlink="http://www.w3.org/1999/xlink" x="0px" y="0px"
	 width="1400px" height="196px" viewBox="0 0 1400 196" enable-background="new 0 0 1400 196" xml:space="preserve">
<polygon points="0,196.003 1400,196 1400,26.667 787.807,41.072 778.857,50.242 0,88 "/>
<path d="M788.222,40.724c-0.063,0.006-0.127,0.011-0.192,0.017c-0.425,0.041-0.887,0.066-1.201-0.021
	c-0.16-0.045-0.404-0.174-0.621-0.33c-0.102-0.072-0.206-0.112-0.288-0.145c-0.048-0.02-0.096-0.035-0.144-0.065
	c-0.175-0.106-0.335-0.245-0.505-0.391l-0.16-0.138c-0.197-0.162-0.386-0.243-0.62-0.243c-0.003,0-0.006,0-0.008,0
	c-0.057,0.004-0.232,0.018-0.346,0.161c-0.113,0.144-0.092,0.308-0.076,0.429l0.054,0.742c0.006,0.046,0.012,0.094-0.002,0.17
	c-0.014,0.03-0.032,0.074-0.044,0.137l-0.014,0.071c-0.01,0.066-0.01,0.066-0.04,0.116c-0.013,0.024-0.034,0.047-0.052,0.07
	c-0.03,0.037-0.059,0.073-0.08,0.106l-0.107,0.162c-0.07,0.106-0.138,0.211-0.212,0.308c-0.036,0.047-0.082,0.083-0.141,0.13
	c-0.041,0.031-0.081,0.063-0.119,0.098c-0.051,0.047-0.1,0.094-0.146,0.141c-0.073,0.075-0.146,0.146-0.234,0.213
	c-0.058,0.044-0.108,0.09-0.16,0.133c-0.1,0.09-0.152,0.135-0.24,0.154c-0.12,0.027-0.274,0.03-0.423,0.032
	c-0.086,0.001-0.172,0.002-0.252,0.007l-0.715,0.048c-0.042,0.002-0.094,0.011-0.151,0.02c-0.062,0.01-0.135,0.023-0.194,0.04
	c-0.006-0.01-0.018-0.046-0.028-0.07c-0.039-0.109-0.105-0.293-0.321-0.38c-0.143-0.058-0.374-0.033-0.592,0.005
	c-0.061,0.011-0.115,0.021-0.158,0.023l-1.231,0.078c-0.178,0.006-0.381,0.012-0.573,0.068c-0.105,0.031-0.199,0.07-0.293,0.108
	c-0.081,0.033-0.162,0.066-0.248,0.09c-0.211,0.058-0.294,0.15-0.364,0.249c-0.021,0.032-0.04,0.054-0.115,0.104
	c-0.062,0.025-0.155,0.065-0.237,0.159c-0.063,0.077-0.094,0.16-0.118,0.228c-0.006,0.021-0.014,0.043-0.021,0.056
	c-0.033,0.06-0.084,0.115-0.144,0.179c-0.06,0.064-0.119,0.13-0.169,0.201c-0.048,0.069-0.095,0.145-0.142,0.222
	c-0.073,0.125-0.145,0.242-0.227,0.316c-0.055,0.049-0.095,0.055-0.131,0.055c-0.086,0-0.199-0.045-0.317-0.092
	c-0.048-0.02-0.101-0.039-0.149-0.057c-0.081-0.028-0.171-0.047-0.267-0.065c-0.095-0.018-0.188-0.035-0.255-0.067
	c-0.043-0.022-0.085-0.046-0.124-0.069c-0.071-0.043-0.144-0.083-0.232-0.121c-0.096-0.039-0.177-0.094-0.26-0.149
	c-0.133-0.087-0.281-0.185-0.472-0.234c-0.024-0.044-0.052-0.086-0.08-0.13l-0.049-0.315h-0.268c-0.028,0-0.068,0.003-0.128,0.011
	c-0.104,0.015-0.19,0.075-0.32,0.174c-0.024,0.019-0.048,0.037-0.056,0.042l-0.056,0.026c-0.131,0.062-0.196,0.092-0.245,0.144
	c-0.05,0.051-0.093,0.106-0.134,0.164c-0.03,0.042-0.062,0.087-0.103,0.121c-0.032,0.031-0.06,0.06-0.088,0.087
	c-0.024,0.025-0.047,0.049-0.082,0.074c-0.128,0.095-0.203,0.192-0.318,0.341c-0.161,0.208-0.36,0.321-0.592,0.454l-0.22,0.129
	c-0.138,0.083-0.206,0.126-0.341,0.133c-0.127,0.008-0.254,0.017-0.381,0.025l-0.152,0.012c-0.415,0.026-0.715,0.082-1.035,0.188
	c-0.195,0.064-0.351,0.086-0.547,0.098l-0.112,0.011c-0.04,0.005-0.076,0.011-0.166-0.003c-0.035-0.015-0.085-0.035-0.152-0.044
	c-0.388-0.059-0.953-0.021-1.385,0.065c-0.232,0.046-0.425,0.172-0.593,0.286c-0.099,0.064-0.195,0.131-0.303,0.178
	c-0.112,0.046-0.2,0.064-0.372,0.077l-0.67,0.042l-0.224-0.003c-0.165,0-0.351,0.012-0.487,0.106
	c-0.084,0.059-0.129,0.13-0.157,0.18c-0.023,0.018-0.058,0.03-0.087,0.047c-0.053,0.026-0.106,0.052-0.152,0.081
	c-0.013,0.01-0.028,0.017-0.042,0.026c-1.424,0.206-2.837,0.427-4.157,0.637c-0.026-0.007-0.058-0.021-0.094-0.041
	c-0.076-0.038-0.181-0.092-0.328-0.102l-0.085-0.003c-0.115,0-0.233,0.013-0.35,0.026c-0.075,0.008-0.146,0.017-0.218,0.021
	c-0.251,0.012-0.398,0.095-0.553,0.182l-0.083,0.046c-0.249,0.136-0.682,0.301-1.047,0.276l-0.051-0.175h-0.206
	c-0.015,0-0.042-0.012-0.074-0.024c-0.061-0.025-0.145-0.058-0.307-0.065c-0.049,0-0.095,0.004-0.142,0.008
	c-0.029,0.002-0.056,0.005-0.126,0.003c-0.287-0.059-0.649-0.044-1.009-0.016l-0.22,0.016c-0.078,0.006-0.166,0.017-0.26,0.029
	c-0.126,0.018-0.262,0.035-0.389,0.035c-0.126,0-0.183-0.02-0.208-0.034c-0.049-0.026-0.089-0.059-0.129-0.09
	c-0.111-0.086-0.263-0.207-0.569-0.207l-0.076-0.002c-0.096,0-0.165,0.009-0.22,0.024c-0.143,0.041-0.221,0.122-0.273,0.176
	l-0.066,0.053c-0.156,0.084-0.364,0.2-0.51,0.2c-0.053,0-0.077-0.015-0.095-0.031l-0.081-0.071
	c-0.277-0.249-0.622-0.555-1.051-0.555c-0.211,0-0.362,0.077-0.482,0.139c-0.055,0.028-0.113,0.059-0.178,0.077l-0.108,0.025
	c-0.132,0.028-0.298,0.065-0.442,0.177c-0.069,0.053-0.119,0.112-0.16,0.16c-0.044,0.052-0.066,0.075-0.078,0.079l-0.769,0.039
	c-0.041,0.002-0.084,0.008-0.131,0.014c-0.048,0.006-0.099,0.014-0.143,0.014l-0.062-0.018c-0.039-0.015-0.085-0.035-0.143-0.043
	c-0.181-0.028-0.396-0.011-0.585,0.011c-0.113,0.015-0.222,0.047-0.328,0.079c-0.109,0.034-0.22,0.07-0.327,0.062h-0.02
	c-0.07-0.172-0.194-0.261-0.37-0.264c-0.133,0-0.229,0.083-0.297,0.146c-0.059,0.034-0.126,0.066-0.192,0.098
	c-0.06,0.028-0.117,0.057-0.175,0.085l-0.142,0.081c-0.142,0.083-0.223,0.127-0.388,0.135c-0.153,0.009-0.329,0.012-0.394-0.04
	c-0.027-0.033-0.067-0.083-0.132-0.125c-0.075-0.048-0.146-0.062-0.15-0.04c-0.027-0.037-0.058-0.18-0.074-0.267
	c-0.047-0.231-0.126-0.622-0.496-0.622c-0.103,0-0.209,0.036-0.322,0.109c-0.166,0.106-0.308,0.231-0.445,0.351
	c-0.121,0.107-0.242,0.214-0.377,0.302c-0.098,0.062-0.169,0.127-0.245,0.2l-0.158,0.141c-0.116,0.099-0.19,0.169-0.283,0.362
	c-0.042,0.091-0.107,0.16-0.208,0.254c-0.023,0.022-0.063,0.065-0.102,0.111c-0.024,0.029-0.048,0.057-0.098,0.076
	c-0.05,0.014-0.117,0.035-0.184,0.077c-0.005,0.002-0.005,0.006-0.012,0.009c-0.828,0.064-1.657,0.122-2.484,0.193
	c-0.077-0.01-0.157-0.015-0.232-0.027c-0.238-0.04-0.498-0.06-0.771-0.06c-0.819,0-1.718,0.178-2.591,0.431
	c-0.572,0.058-1.148,0.105-1.721,0.166c-0.051-0.176-0.109-0.323-0.182-0.428c-0.196-0.292-1.199-0.899-1.623-1.147l-1.197-0.238
	c0.08-0.592,0.147-1.254,0.17-1.932c0.286-0.668,0.507-1.688,0.023-2.843l-0.459-3.128l-0.139-1.974l-0.571-2.032
	c-0.001-0.019-0.126-1.821-0.133-2.082c-0.002-0.169-0.037-0.479-0.068-0.718c0.423-0.024,1.201-0.128,2.174-0.528
	c0.321-0.133,0.636-0.375,0.938-0.668c1.346-0.278,2.6-0.572,3.691-0.847c-0.079,0.188-0.075,0.32-0.025,0.516
	c0.029,0.111,0.066,0.251,0.072,0.537c0.016,0.691,0.017,0.781,0.339,1.132c0.053,0.059,0.119,0.13,0.2,0.226
	c0.162,0.19,0.163,0.255,0.166,0.385c0.002,0.177,0.008,0.424,0.28,0.85c0.171,0.266,0.372,0.4,0.6,0.4
	c0.168,0,0.297-0.079,0.39-0.134c0.444-0.242,0.537-0.39,0.635-0.606c0.019-0.042,0.042-0.09,0.042-0.131
	c0.007,0,0.034,0.012,0.055,0.041c0.025,0.037,0.02,0.071,0.017,0.081c-0.123,0.565,0.126,0.943,0.806,1.225
	c0.736,0.304,1.316,0.173,1.315,0.173l0.097-0.02l0.694-0.842c0.155-0.034,0.492-0.108,0.874-0.183
	c0.464-0.091,0.552-0.464,0.638-0.826c0.063-0.282,0.147-0.633,0.397-1.06c0.124-0.208,0.195-0.407,0.223-0.597
	c0.13-0.479,0.263-1.216,0.378-2.366c0.086-0.866,0.04-2.297-0.005-3.681c-0.002-0.041-0.003-0.08-0.004-0.122l3.903-4.135
	c0.12,0.188,0.45,0.703,0.599,0.924c0.117,0.172,0.43,0.571,0.783,0.571c0.004,0,0.007,0,0.012,0
	c0.158-0.004,0.297-0.086,0.385-0.233c0.028-0.045,0.058-0.097,0.086-0.149c0.05,0.082,0.109,0.167,0.181,0.253
	c0.278,0.344,0.589,0.516,0.925,0.516c0.303,0,0.628-0.139,0.973-0.418c0.295-0.236,0.48-0.39,0.616-0.503
	c0.182-0.15,0.271-0.226,0.421-0.333c0.259-0.189,0.524-0.744,0.646-1.029c0.117-0.048,0.31-0.134,0.537-0.258
	c0.235-0.126,0.775-0.469,0.754-0.907c-0.008-0.16-0.093-0.381-0.443-0.526c-0.255-0.129-0.311-1.668-0.344-2.587
	c-0.024-0.687-0.048-1.398-0.123-2.012c-0.103-0.867-0.264-1.712-0.407-2.458c-0.161-0.837-0.3-1.558-0.312-2.065
	c-0.007-0.316-0.019-0.525-0.029-0.685c-0.022-0.343-0.026-0.423,0.076-0.892c0.005-0.022,0.009-0.051,0.014-0.073
	c0.11,0.228,0.176,0.375,0.179,0.382l0.531,1.248V9.274c0-1.249-0.239-2.228-0.577-2.998c-0.011-0.057-0.019-0.117-0.031-0.169
	c-0.186-0.699-2.396-3.477-3.132-3.61c-0.077-0.087-0.202-0.401-0.285-0.611c-0.274-0.692-0.651-1.639-1.444-1.547
	c-0.346,0.041-0.64,0.502-0.832,0.896c-0.16-0.122-0.389-0.228-0.638-0.224c-0.131,0.003-0.251,0.06-0.342,0.165
	c-0.278,0.312-0.284,1.098-0.263,1.517c-0.165,0.082-0.459,0.21-0.816,0.271c-0.189,0.033-0.231,0.003-0.339-0.079
	c-0.157-0.116-0.375-0.269-0.872-0.262c-0.695,0.017-1.433,0.539-2.284,1.143c-0.243,0.171-0.495,0.35-0.755,0.524
	c-0.744,0.493-1.663,0.749-2.4,0.955c-0.356,0.099-0.664,0.186-0.901,0.284c-0.307,0.125-0.484,0.129-0.676,0.133
	c-0.219,0.006-0.443,0.01-0.766,0.186c-0.194,0.105-0.348,0.243-0.508,0.389c-0.323,0.292-0.654,0.594-1.428,0.724
	c-0.752,0.129-0.889,0.181-1.053,0.407c-0.043,0.06-0.102,0.142-0.358,0.298c-0.447,0.268-0.659,0.454-0.847,0.617
	c-0.157,0.138-0.293,0.258-0.557,0.421c-0.203,0.125-0.303,0.114-0.338,0.105c-0.083-0.025-0.063-0.046-0.062-0.046l-0.036-0.065
	c-0.006-0.007-0.528-0.696-0.794-1.372l-0.028-0.076c-0.27-0.697-0.503-1.298-1.278-1.773c-0.167-0.102-0.412-0.22-0.638-0.101
	c-0.242,0.131-0.259,0.418-0.271,0.65c-0.006,0.075-0.014,0.204,0.002,0.208c-0.319,0.229-0.184,0.59-0.053,0.941
	c0.103,0.271,0.243,0.641,0.33,1.157c0.052,0.292,0.1,0.492,0.134,0.63c-0.072,0.012-0.158,0.03-0.265,0.06
	c-0.399,0.113-0.544,0.408-0.61,0.64c-0.384-0.352-0.591-0.349-1.111-0.289c-0.219,0.023-0.521,0.057-0.956,0.067
	c-1.188,0.029-2.676,0.655-3.87,1.159c-0.292,0.124-0.564,0.238-0.812,0.334c-0.627,0.247-1.784,0.507-2.957,0.745
	c-0.298-0.209-1.028-0.682-1.563-0.682c-0.099,0-0.188,0.015-0.268,0.044c-0.283,0.104-0.369,0.135-0.483,0.362
	c-0.054,0.109-0.168,0.333-0.608,0.854c-1.349,0.267-3.766,0.171-5.501-0.072c-1.797-0.25-3.276-0.098-4.608,0.104
	c-2.335,0.355-4.293,0.554-5.817,0.587c-1.943,0.045-2.604,0.481-4.567,1.779l-0.593,0.391c-1.561,1.023-3.257,1.521-4.244,1.743
	c-0.996-0.055-2.311-0.193-2.95-0.417c-1.144-0.398-2.594-0.266-3.93,0.372c-1.053,0.501-2.826,1.524-3.888,2.135
	c-0.364,0.211-0.643,0.371-0.777,0.444c-0.201,0.11-0.458,0.367-0.746,0.735c-0.221-0.113-0.462-0.231-0.721-0.356
	c-0.896-0.438-1.426-0.242-2.831,0.521c-1.404,0.763-1.914,1.871-3.387,3.641c-1.471,1.768-0.686,1.111-1.609,3.599
	c-0.924,2.486-0.717,3.853-1.475,5.788c-0.149,0.382-0.223,0.671-0.251,0.901c-10.444,2.899-19.667,4.347-26.515,5.061
	c-4.647,0.485-8.621,0.681-11.618,0.746c-0.73-0.42-1.178-0.43-1.282-0.428c-0.083-0.023-0.396-0.108-0.668-0.195
	c-0.304-0.097-0.539-0.3-0.784-0.679c-0.091-0.143-0.159-0.229-0.215-0.3c-0.106-0.136-0.155-0.198-0.262-0.573
	c-0.079-0.276-0.18-0.534-0.369-0.534c-0.004,0-0.007,0-0.012,0c-0.208-0.277-0.464-0.658-0.497-0.801
	c-0.008-0.043-0.017-0.087-0.023-0.129c-0.039-0.226-0.082-0.479-0.422-0.956c-0.24-0.336-0.319-0.555-0.409-0.81
	c-0.049-0.137-0.1-0.28-0.179-0.451c-0.12-0.263-0.21-0.42-0.282-0.545c-0.061-0.105-0.11-0.191-0.158-0.309
	c-0.039-0.094-0.071-0.206-0.109-0.34c-0.073-0.257-0.165-0.577-0.349-0.971c-0.08-0.17-0.154-0.301-0.225-0.424
	c-0.17-0.298-0.294-0.516-0.379-1.148c-0.022-0.153-0.055-0.325-0.093-0.48c-0.027-0.691-0.153-1.823-0.249-2.373
	c-0.083-0.473-0.242-0.963-0.386-1.339c0.128-0.081,0.239-0.202,0.322-0.383c0.498-1.089,0.437-2.411,0.319-3.26
	c0.037-0.071,0.068-0.159,0.082-0.275c0.022-0.196,0.034-0.351,0.039-0.458c0.15-0.014,0.212-0.06,0.244-0.102
	c0.097-0.112,0.062-0.301-0.013-0.715l-0.031-0.179c0.017-0.168,0.066-0.353,0.096-0.383l0.036-0.012
	c0.236-0.077,0.275-0.222,0.268-0.732c0.181-0.172,0.809-0.743,1.359-0.931c0.106-0.036,0.387-0.133,0.356-0.367
	c-0.042-0.299-0.585-0.313-0.695-0.313c-0.082,0-0.2,0.008-0.297,0.044c-0.24,0.088-0.716,0.185-0.906,0.22
	c-0.063-0.072-0.149-0.192-0.177-0.296c-0.05-0.189-0.169-0.67-0.179-1.102c-0.012-0.553-0.268-1.024-0.833-1.528
	c-0.212-0.19-0.448-0.281-0.726-0.281c-0.25,0-0.481,0.074-0.684,0.141c-0.133,0.042-0.256,0.083-0.34,0.084
	c-0.422,0.01-1.772,0.615-2.085,0.838c-0.324,0.232-0.638,0.568-0.65,0.582l-0.059,0.062l0.014,0.087
	c0.032,0.193,0.147,0.833,0.33,1.011c0.052,0.079,0.068,0.485,0.044,0.913c-0.24,0.012-0.749,0.073-1.161,0.385
	c-0.445,0.335-0.561,0.969-0.346,1.881c0.113,0.466,0.601,0.466,0.76,0.466c0.125,0,0.259-0.011,0.388-0.022
	c0.101-0.009,0.2-0.017,0.291-0.019c0.167-0.007,0.339-0.002,0.501,0.003c-0.002,0.005-0.005,0.013-0.006,0.017
	c-0.025,0.061-0.074,0.175-0.049,0.275c-0.059,0.197-0.148,0.325-0.232,0.45c-0.019,0.029-0.038,0.058-0.056,0.084
	c-0.053-0.019-0.115-0.034-0.188-0.034c-0.174,0-0.345,0.087-0.505,0.259l-0.7,0.757c-0.042,0.028-1.026,0.683-1.497,1.708
	c-0.46,0.993-0.814,2.155-0.914,2.741c-0.054,0.308-0.143,0.604-0.239,0.917c-0.07,0.229-0.14,0.466-0.203,0.719
	c-0.074,0.305-0.131,0.663-0.194,1.043c-0.061,0.385-0.131,0.82-0.23,1.261c-0.17,0.777-0.139,1.585-0.123,1.975l0.006,0.147
	c0.001,0.083-0.039,0.215-0.077,0.342c-0.07,0.234-0.143,0.477-0.044,0.668c0.033,0.063,0.055,0.128,0.078,0.192
	c0.053,0.153,0.114,0.328,0.287,0.498c0.211,0.206,0.835,0.924,0.839,0.93l0.497,0.593c-0.002,0.088-0.006,0.222-0.01,0.369
	c-0.021,0.067-0.021,0.163-0.021,0.278c0,0.293,0,0.293,0.049,0.348l0.018,0.018c0.006,0.089,0.014,0.187,0.022,0.287
	c0.117,1.514,0.245,3.022,0.415,3.382c0.285,0.609,1.069,1.706,1.289,1.977c0.166,0.204,0.553,1.09,0.133,2.429l-0.03,0.094
	c-0.141,0.443-0.3,0.947-0.235,1.445c0.055,0.424-0.149,1.603-0.368,2.394c-0.093,0.337-0.203,0.451-0.301,0.553
	c-0.102,0.106-0.208,0.216-0.234,0.481c-0.015,0.146-0.041,0.215-0.089,0.331c-0.078,0.196-0.185,0.466-0.301,1.253
	c-0.127,0.866-0.391,1.589-0.583,2.119c-0.085,0.235-0.158,0.438-0.206,0.612c-0.056,0.208-0.14,0.349-0.229,0.498
	c-0.04,0.065-0.079,0.135-0.118,0.21c-0.042-0.014-0.081-0.031-0.128-0.037c-0.006-0.105-0.074-0.168-0.115-0.253
	c-0.071-0.156,0.053-0.182-0.157-0.164c-0.058,0.006-0.226,0.14-0.283,0.171c-0.04,0.021-0.214,0.083-0.245,0.111
	c-0.094,0.088-0.153,0.199-0.261,0.287c-0.073,0.061-0.115,0.114-0.196,0.168c-0.116,0.079-0.179,0.163-0.275,0.275
	c-0.233,0.274-0.508,0.397-0.791,0.544c-0.219,0.114-0.343,0.218-0.597,0.22c-0.177,0.002-0.354,0.008-0.532,0.013
	c-0.355,0.008-0.648,0.04-0.975,0.135c-0.214,0.061-0.387,0.078-0.619,0.084c-0.086,0.001-0.186,0.018-0.269,0.008
	c-0.096-0.01-0.137-0.053-0.216-0.068c-0.372-0.069-0.916-0.051-1.296,0.008c-0.305,0.047-0.559,0.3-0.858,0.41
	c-0.154,0.055-0.275,0.074-0.462,0.079c-0.208,0.006-0.416,0.01-0.624,0.014c-0.157,0.004-0.488-0.055-0.624,0.029
	c-0.077,0.05-0.088,0.127-0.165,0.175c-0.043,0.028-0.1,0.051-0.155,0.076c-0.085-0.059-0.192-0.109-0.353-0.114
	c-0.092-0.006-0.195-0.007-0.255,0.01c-0.127,0.033-0.203,0.115-0.248,0.163l-0.062,0.05c-0.186,0.106-0.477,0.208-0.533,0.143
	l-0.067-0.075c-0.234-0.26-0.527-0.582-0.932-0.6c-0.168,0-0.295,0.066-0.396,0.12c-0.048,0.024-0.098,0.052-0.158,0.069
	l-0.096,0.021c-0.117,0.022-0.262,0.053-0.391,0.157c-0.055,0.044-0.102,0.099-0.147,0.151c-0.039,0.051-0.061,0.074-0.094,0.078
	l-0.165-0.007l-0.485,0.012c-0.036,0.001-0.074,0.004-0.115,0.008c-0.034,0.003-0.072,0.006-0.106,0.006l-0.076-0.02
	c-0.031-0.017-0.071-0.036-0.118-0.047c-0.159-0.036-0.348-0.031-0.515-0.016c-0.099,0.01-0.194,0.036-0.29,0.065
	c-0.083,0.025-0.16,0.048-0.266,0.048c-0.012,0-0.026-0.002-0.039-0.003c-0.055-0.174-0.16-0.267-0.325-0.277
	c-0.11,0-0.193,0.076-0.253,0.134c-0.053,0.031-0.114,0.062-0.175,0.091c-0.052,0.024-0.103,0.05-0.153,0.078l-0.127,0.073
	c-0.126,0.077-0.197,0.118-0.342,0.119l-0.078,0.001c-0.093,0-0.207-0.006-0.267-0.061c-0.022-0.033-0.055-0.083-0.108-0.128
	c-0.064-0.052-0.126-0.068-0.132-0.047c-0.024-0.039-0.044-0.182-0.056-0.268c-0.031-0.225-0.09-0.644-0.428-0.644
	c-0.083,0-0.172,0.031-0.269,0.094c-0.147,0.098-0.276,0.217-0.401,0.332c-0.111,0.101-0.22,0.203-0.341,0.284
	c-0.089,0.057-0.154,0.122-0.225,0.192l-0.139,0.132c-0.076,0.067-0.132,0.123-0.189,0.216c-0.162,0.002-0.316-0.013-0.429-0.079
	c-0.192-0.113-0.27-0.282-0.515-0.288c-0.074-0.002-0.196-0.018-0.267,0.001c-0.125,0.029-0.155,0.124-0.263,0.177
	c-0.275,0.136-0.692,0.356-0.949,0.109c-0.25-0.239-0.566-0.585-0.926-0.598c-0.24-0.012-0.374,0.126-0.597,0.179
	c-0.154,0.037-0.329,0.042-0.46,0.135c-0.13,0.093-0.188,0.236-0.352,0.274c-0.075,0.018-0.187-0.001-0.266,0
	c-0.182,0.002-0.368,0.009-0.551,0.012c-0.107,0.003-0.236,0.025-0.34,0.01c-0.08-0.012-0.139-0.057-0.195-0.069
	c-0.16-0.031-0.347-0.024-0.512-0.01c-0.242,0.02-0.46,0.142-0.712,0.111c-0.14-0.017-0.107,0.02-0.202-0.084
	c-0.067-0.071-0.03-0.188-0.157-0.194c-0.047-0.003-0.126,0.083-0.167,0.104c-0.116,0.061-0.258,0.113-0.382,0.171
	c-0.215,0.104-0.363,0.218-0.597,0.22c-0.191,0.001-0.434,0.018-0.605-0.099c-0.036-0.024-0.062-0.063-0.091-0.098
	c-0.674,2.564-1.254,5.161-1.74,7.787L794.072,56.22C792.515,50.89,790.552,45.712,788.222,40.724z M747.169,20.548
	c0.04,0.177,0.125,0.381,0.275,0.588l-3.147,3.338c-0.004-0.303-0.004-0.583,0.004-0.801c0.032-0.73-0.099-1.416-0.217-2.021
	c-0.022-0.12-0.045-0.236-0.065-0.348L747.169,20.548z M746.734,18.766c0.012,0.034,0.019,0.062,0.02,0.081
	c0.003,0.139,0.069,0.39,0.148,0.642l-2.923,0.702c0.032-0.284-0.008-0.544-0.052-0.797c-0.069-0.397-0.129-0.739,0.123-1.149
	c0.002-0.003,0.004-0.007,0.006-0.01L746.734,18.766z M743.551,14.713c0.068-0.021,0.15,0.047,0.24,0.167
	c0.389,0.527,0.565,0.816,0.707,1.047c0.122,0.203,0.221,0.362,0.398,0.582c0.259,0.317,0.594,0.666,0.876,0.95l-1.385-0.275
	c0.021-0.379-0.052-0.722-0.114-1.006c-0.019-0.084-0.037-0.164-0.052-0.241c-0.026-0.142-0.101-0.548-0.396-0.612l-0.325-0.591
	C743.517,14.726,743.533,14.715,743.551,14.713z M734.694,28.769c0.156-0.111,0.552-0.318,0.821-0.453l0.234,0.289
	c0.006,0.005,0.455,0.513,0.683,1.019l-1.866-0.665C734.627,28.863,734.677,28.788,734.694,28.769z M733.971,29.905l0.86,0.307
	c-0.405,0.097-0.825,0.194-1.26,0.292C733.712,30.299,733.846,30.099,733.971,29.905z M623,53.497
	c-0.084,0.491-0.114,1.459-0.115,2.078c-0.107-0.002-0.214-0.007-0.314-0.005c-0.149,0.003-0.296,0.007-0.444,0.01
	c-0.011-0.027-0.016-0.053-0.037-0.078l-0.109-0.094h-0.102c-0.021,0-0.049,0.002-0.094,0.006c-0.09,0.009-0.168,0.068-0.289,0.162
	l-0.05,0.032c-0.039-0.004-0.076-0.012-0.102-0.029c-0.17-0.108-0.098-0.351-0.29-0.438c-0.138-0.062-0.473,0.018-0.627,0.021
	c-0.126,0.003-0.254,0.005-0.381,0.009c0.11-0.424,0.241-0.892,0.383-1.396c0.471-1.683,1.053-3.752,1.151-5.402
	c0.286,0.225,0.769,0.591,1.063,0.744c0.056,0.556,0.157,1.401,0.27,1.564c0.077,0.114,0.134,0.389,0.092,0.63
	c-0.012,0.072-0.038,0.148-0.065,0.231c-0.072,0.229-0.164,0.516-0.068,0.839l0.034,0.11C623.005,52.812,623.079,53.044,623,53.497z
	 M624.492,39.955c-0.561-0.381-1.078-0.651-1.808-1.023l-0.107-0.054l0.076-0.846l0.157,0.092c0.003,0.002,0.318,0.192,0.443,0.493
	c0.162,0.392,0.892,0.928,0.974,0.987l0.347,0.252c0.025,0.032,0.047,0.068,0.07,0.102
	C624.593,39.957,624.541,39.955,624.492,39.955z M670.152,45.899c-0.097,0.139-0.158,0.307-0.204,0.481
	c-0.038,0.019-0.073,0.037-0.11,0.056C670.019,46.103,670.152,45.899,670.152,45.899z M668.325,49.488
	c-0.163,0.088-0.312,0.17-0.447,0.243c-0.018-0.079-0.029-0.159-0.036-0.239c0.146-0.071,0.293-0.143,0.442-0.217
	C668.295,49.35,668.31,49.419,668.325,49.488z M668.235,43.476c-0.743,1.203-0.661,2.099-0.557,2.506l-0.527,0.31
	c0.04-0.361,0.062-0.747,0.053-1.148C667.168,43.409,668.235,43.476,668.235,43.476z M667.711,49.822
	c-0.007,0.004-0.016,0.008-0.023,0.012c-0.06-0.056-0.127-0.11-0.208-0.164c0.038-0.019,0.073-0.036,0.111-0.055
	C667.631,49.694,667.671,49.763,667.711,49.822z M667.455,47.322c-0.024,0.117-0.041,0.226-0.057,0.335
	c-0.207,0.101-0.408,0.199-0.606,0.295c0.032-0.089,0.063-0.188,0.094-0.293L667.455,47.322z M627.331,41.691
	c0.438-0.066,0.684-0.202,1.036-0.568c0.206-0.002,0.406-0.002,0.614-0.006c0.195,0.113,0.397,0.289,0.556,0.472
	c0.177,0.201,0.522,0.713,0.867,1.325l-2.377-0.261l-1.054-0.833C627.084,41.762,627.199,41.711,627.331,41.691z M631.035,44.208
	c0.081,0.173,0.202,0.365,0.362,0.576c-0.203-0.006-0.404-0.009-0.596-0.009c-0.065,0-0.128,0-0.191,0.001
	c-0.232-0.207-0.537-0.465-0.922-0.784c0.17-0.036,0.357-0.06,0.503-0.06c0.135,0,0.18,0.02,0.188,0.024
	C630.526,44.027,630.866,44.149,631.035,44.208z M636.221,53.467l-0.942,0.023c-0.105,0.003-0.213,0.01-0.32,0.017
	c-0.396,0.023-0.788,0.023-1.049-0.073c-0.167-0.063-0.384-0.225-0.533-0.358c-0.085-0.076-0.171-0.118-0.247-0.157
	c-0.042-0.021-0.083-0.039-0.123-0.07c-0.145-0.111-0.277-0.251-0.417-0.401l-0.145-0.153c-0.173-0.181-0.349-0.273-0.542-0.273h0
	c-0.05,0.002-0.202,0.009-0.306,0.146c-0.104,0.137-0.092,0.303-0.083,0.426l0.022,0.743c0.002,0.045,0.006,0.094-0.009,0.171
	c-0.013,0.031-0.031,0.073-0.042,0.134l-0.012,0.065c-0.113,0.008-0.227,0.021-0.328,0.023c-0.324,0.007-0.649,0.014-0.974,0.021
	c-0.325,0.008-0.65,0.016-0.975,0.023c-0.541,0.013-1.133,0.098-1.656-0.071c-0.023-0.008-0.048-0.021-0.071-0.03
	c-0.013-0.338-0.015-0.67,0.019-0.986c0.054-0.49,0.032-1.034,0.013-1.512c-0.014-0.338-0.027-0.657-0.012-0.898
	c0.043-0.604,0.012-2.085,0.01-2.148c0,0-0.007-0.274-0.019-0.765c-0.01-0.54-0.088-0.735-0.368-1.176
	c-0.143-0.219-0.293-0.362-0.431-0.489c-0.148-0.139-0.278-0.257-0.381-0.461c-0.098-0.192-0.253-0.426-0.404-0.654
	c-0.169-0.259-0.381-0.581-0.409-0.705c-0.053-0.239-0.445-1.093-0.669-1.535c0.967,0.922,1.675,1.757,1.682,1.766
	c0.082,0.101,0.721,0.596,2.391,1.877c2.287,1.753,5.741,4.404,6.714,5.359c0.506,0.496,1.09,0.992,1.646,1.434
	C636.899,52.999,636.553,53.227,636.221,53.467z M631.863,45.889c0.227,0.017,0.427,0.028,0.588,0.033
	c0.438,0.416,0.816,0.72,0.82,0.72l0.259,0.27c-0.124,0.008-0.245,0.015-0.364,0.024C632.654,46.532,632.22,46.183,631.863,45.889z
	 M642.388,49.032c-0.399,0.608-0.698,1.151-0.934,1.647c-0.382,0.157-0.794,0.335-1.225,0.531c-0.896-0.985-1.923-2.115-2.956-3.253
	c2.021-0.075,4.193-0.157,6.24-0.236C643.101,48.091,642.721,48.523,642.388,49.032z M647.659,54.273
	c-0.007-0.007-0.015-0.012-0.023-0.019c0.027,0.002,0.055,0.006,0.082,0.008C647.698,54.267,647.678,54.27,647.659,54.273z
	 M653.694,54.509c-0.062,0.04-0.092,0.057-0.136,0.061c-0.071,0.007-0.146,0.006-0.215,0.006l-0.165,0.002
	c-0.256,0.01-0.439,0.104-0.608,0.216c-0.003,0-0.005,0-0.008,0c-0.38,0.015-0.852,0.093-1.229,0.029
	c-0.283-0.047-0.479-0.255-0.8-0.146c-0.108,0.035-0.185,0.09-0.273,0.13c-0.001-0.001-0.002-0.002-0.003-0.003
	c-0.081-0.096-0.174-0.205-0.289-0.286c-0.051-0.037-0.097-0.058-0.142-0.078c0.745,0.043,1.557,0.069,2.433,0.069
	c0.402,0,0.82-0.006,1.248-0.017c0.081-0.003,0.163-0.011,0.243-0.013C653.732,54.49,653.71,54.499,653.694,54.509z M657.035,55.153
	c-0.118,0.014-0.231,0.047-0.357,0.076c-0.048,0.01-0.101,0.012-0.15,0.021l-0.013-0.14l-0.172-0.042
	c-0.01-0.019-0.018-0.036-0.026-0.053c-0.001-0.067-0.006-0.177-0.068-0.282c-0.137-0.228-0.329-0.228-0.394-0.228l-0.126,0.006
	c-0.102,0.005-0.211,0.014-0.325,0.025c-0.237,0.023-0.488,0.049-0.703,0.006c-0.06-0.01-0.12-0.039-0.188-0.071
	c-0.022-0.01-0.049-0.02-0.074-0.03c0.901-0.045,1.803-0.117,2.702-0.217C657.071,54.526,657.029,54.837,657.035,55.153z
	 M657.53,53.123c-1.752,0.215-3.516,0.327-5.277,0.327c-2.593,0-4.64-0.237-5.92-0.44c-0.769-0.809-1.506-1.741-2.189-2.814
	c0.277-0.618,0.75-1.376,1.451-1.571c0.511-0.141,0.913-0.204,1.304-0.204c0.684,0,1.415,0.196,2.551,0.516
	c0.337,0.096,0.736,0.229,1.187,0.382c1.647,0.552,4.137,1.387,6.926,1.387c0.4,0,0.797-0.021,1.189-0.055
	c0.176,0.085,0.354,0.188,0.531,0.315c0.004,0.006,0.008,0.012,0.011,0.019c-0.251,0.142-0.529,0.353-0.823,0.659
	C658.432,51.688,657.93,52.28,657.53,53.123z M660.365,54.661c-0.029-0.05-0.033-0.09-0.04-0.179
	c-0.004-0.082-0.012-0.183-0.051-0.304l-0.073-0.22l-0.226,0.029c-0.125,0.016-0.213,0.091-0.3,0.175
	c-0.065,0.005-0.125,0.021-0.185,0.049l-0.091,0.07c-0.02,0.021-0.04,0.047-0.06,0.073c-0.045,0.027-0.104,0.048-0.152,0.074
	c0-0.009-0.004-0.019-0.004-0.028c-0.012-0.151-0.003-0.303,0.018-0.454c0.373-0.059,0.745-0.118,1.116-0.186
	c0.04,0.257,0.069,0.494,0.094,0.705c0.014,0.115,0.027,0.224,0.042,0.33C660.427,54.761,660.399,54.719,660.365,54.661z
	 M659.684,52.808c0.092-0.128,0.193-0.254,0.31-0.38c0.038,0.103,0.071,0.205,0.1,0.304
	C659.958,52.756,659.822,52.784,659.684,52.808z M661.757,50.291c-0.107-0.13-0.19-0.247-0.265-0.357
	c0.021-0.05,0.027-0.096,0.029-0.135c0.017-0.206-0.108-0.359-0.367-0.455c-0.029-0.01-0.066-0.014-0.098-0.023
	c-0.237-0.261-0.54-0.415-1.177-0.447c-0.023-0.001-0.043-0.001-0.066-0.003c-1.085-1.229-2.271-2.385-2.83-2.385
	c-0.152,0-0.281,0.066-0.364,0.184c-0.423,0.601,0.045,0.973,0.355,1.219c0.129,0.104,0.262,0.21,0.375,0.331
	c0.007,0.008,0.237,0.285,0.565,0.719c-0.2,0.028-0.363,0.059-0.465,0.092c-0.047,0.014-0.234,0.042-0.445,0.073
	c-1.798-0.491-5.71-1.676-6.568-2.093c-0.247-0.119-1.553-0.712-3.16-0.712c-0.555,0-1.081,0.079-1.581,0.218
	c-0.678,0.022-1.364,0.045-2.054,0.068c-2.939,0.098-5.871,0.194-7.393,0.243c-2.229-2.465-3.709-4.117-4.401-4.917
	c-0.281-0.325-0.545-0.602-0.795-0.843c3.33-0.111,6.777-0.347,10.255-0.71c6.901-0.72,16.199-2.182,26.727-5.11
	c0.061,0.177,0.075,0.392-0.049,0.746c-0.418,1.196-0.33,1.195-0.03,2.742c0.3,1.546,0.448,0.171-0.146,1.464
	c-0.593,1.292-1.025,1.85-1.025,1.85l0.615-0.288c-0.515,0.835-0.606,0.747-0.736,2.941c-0.043,0.729-0.047,1.365-0.036,1.904
	l-2.683,1.586c-0.325,0.061-0.908,0.222-1.035,0.603c-0.038,0.108-0.065,0.325,0.149,0.558c0.08,0.086,0.167,0.167,0.255,0.243
	C662.674,49.884,662.151,50.118,661.757,50.291z M666.702,47.996c-0.506,0.246-0.989,0.477-1.443,0.691
	c-0.022-0.01-0.043-0.02-0.064-0.029l1.488-0.879C666.688,47.864,666.696,47.929,666.702,47.996z M663.625,51.813
	c0.048-0.034,0.096-0.067,0.14-0.099c0.734-0.391,1.232-0.707,1.567-0.961c0.156-0.003,0.308,0.028,0.456,0.12
	c0.18,0.11,0.364,0.178,0.549,0.224c-0.903,0.312-1.783,0.582-2.634,0.814C663.677,51.877,663.65,51.846,663.625,51.813z
	 M668.053,53.488l-0.571,0.213c-0.199,0.074-0.199,0.075-0.335,0.115c-0.152,0.044-0.463,0.133-1.332,0.405
	c-0.664,0.207-1.06,0.352-1.321,0.453c-0.006-0.18-0.016-0.36-0.033-0.533c-0.049-0.473-0.145-0.897-0.276-1.278
	c1.833-0.513,3.627-1.152,5.384-1.895C669.006,51.676,668.325,52.546,668.053,53.488z M671.009,48.002
	c-0.831,0.466-1.565,0.873-2.172,1.206c0.011-0.075,0.028-0.151,0.042-0.226c0.688-0.343,1.41-0.707,2.156-1.092
	C671.026,47.926,671.019,47.966,671.009,48.002z M676.469,46.085c0.001,0.007,0.003,0.012,0.003,0.018
	c-0.416,0.274-0.832,0.535-1.247,0.788c0.023-0.04,0.046-0.079,0.068-0.119C675.679,46.55,676.072,46.32,676.469,46.085z
	 M675.233,30.161c0.005-0.334,0.045-0.616,0.107-0.862c0.026,0.152,0.047,0.251,0.051,0.271c0.004,0.022,0.194,0.929,0.402,2.123
	c-0.197,0.066-0.393,0.129-0.589,0.194C675.221,31.498,675.219,30.977,675.233,30.161z M673.16,41.171c0.321-1.652,0,0,0.494-1.838
	c0.494-1.84-0.033-1.554,0.035-2.559c0.065-1.007,0.406-1.745,0.999-3.038c0.107-0.231,0.19-0.417,0.258-0.583
	c0.344-0.112,0.688-0.225,1.035-0.34c0.227,1.446,0.421,3.029,0.361,3.966c-0.156,2.48-1.294,3.819-1.521,4.062
	c-0.271,0.291-0.609,0.673-0.985,1.1c-0.239,0.269-0.492,0.556-0.753,0.847l-0.128,0.075
	C672.971,42.418,673.026,41.863,673.16,41.171z M671.409,45.623c-0.044,0.023-0.089,0.047-0.133,0.07
	c0.055-0.077,0.11-0.153,0.164-0.232C671.429,45.515,671.418,45.569,671.409,45.623z M672.194,43.312
	c0.022-0.178,0.029-0.294,0.029-0.294c0.002,0.095,0.014,0.175,0.02,0.265L672.194,43.312z M678.251,52.563
	c-0.163,0.004-0.327,0.009-0.491,0.01c-0.139,0-0.233,0.041-0.349,0.086c-0.092,0.021-0.186,0.039-0.282,0.057l-0.235,0.046
	c-0.04,0.008-0.087,0.012-0.148,0.012l-0.25-0.006c-0.1,0-0.182,0.008-0.259,0.025c-0.106,0.022-0.21,0.063-0.314,0.104
	c-0.074,0.03-0.146,0.061-0.224,0.078c-0.045,0.01-0.104,0.01-0.167,0.01c-0.105,0.001-0.224,0.002-0.352,0.046l-0.084,0.044
	c-0.007,0.005-0.014,0.009-0.021,0.014c-0.125-0.047-0.292-0.084-0.589-0.084l-0.151,0.002c-0.196,0-0.386-0.02-0.583-0.042
	c-0.32-0.032-0.67-0.046-1.031-0.021c0.137-0.546,0.38-1.424,0.805-2.834c0.056-0.187,0.332-0.739,0.707-1.438
	c0.838-0.473,1.667-0.968,2.482-1.496c0.188,0.54,0.418,0.913,0.51,1.046c0.061,0.276,0.331,1.444,0.671,2.343l0.032,0.086
	c0.214,0.564,0.441,1.176,0.571,1.904C678.418,52.56,678.335,52.561,678.251,52.563z M684.933,43.331
	c-0.079,1.065-0.147,1.983-0.141,2.327c0.014,0.568-0.48,3.651-0.681,4.851c-0.06,0.12-0.252,0.498-0.419,0.814l-0.453,0.011
	c-0.274,0.007-0.453,0.053-0.692,0.12c-0.097,0.027-0.202,0.037-0.306,0.046c-0.147,0.015-0.3,0.03-0.45,0.079
	c-0.204-0.66-0.388-1.348-0.543-1.928c-0.163-0.614-0.292-1.098-0.392-1.355c-0.231-0.593,0.125-1.493,0.366-1.842
	c0.077-0.107,0.233-0.416,0.552-1.045c0.491-0.972,1.256-2.485,2.042-3.816c0.07-0.066,0.142-0.13,0.212-0.197
	c0.364-0.24,0.722-0.479,1.076-0.72C685.078,41.38,685.002,42.401,684.933,43.331z M701.789,48.948
	c-0.045,0.033-0.094,0.071-0.144,0.108c-0.009,0-0.02,0-0.029,0l-1.827,0.042c-0.436,0.009-0.769,0.083-1.168,0.198
	c-0.292,0.084-0.555,0.097-0.861,0.111c-0.107,0.006-0.216,0.01-0.329,0.02c-0.124,0.009-0.243,0.037-0.363,0.066
	c-0.083,0.021-0.166,0.042-0.256,0.051c-0.031,0.002-0.065,0.004-0.099,0.004l-0.284-0.007c-0.041,0-0.081,0.001-0.123,0.005
	c-0.117,0.008-0.229,0.037-0.337,0.066c-0.081,0.02-0.159,0.042-0.245,0.05c-0.094,0.008-0.191,0.01-0.286,0.01l-0.271-0.001
	l-0.251,0.002c-0.109,0-0.22-0.002-0.333-0.004c-0.119-0.002-0.24-0.006-0.361-0.006c-0.322,0-0.562,0.022-0.777,0.069
	c-0.334,0.074-0.7,0.19-1.006,0.317c-0.062,0.024-0.114,0.05-0.164,0.076c-0.086,0.042-0.148,0.073-0.232,0.087l-0.102,0.015
	c-0.082,0.01-0.179,0.021-0.3,0.067c-0.09,0.033-0.167,0.082-0.237,0.127c-0.05,0.031-0.099,0.065-0.128,0.074
	c-0.063,0.018-0.193-0.014-0.366,0.041c-0.095,0.031-0.184,0.083-0.268,0.134c-0.046,0.029-0.093,0.058-0.14,0.078
	c-0.1,0.044-0.203,0.076-0.305,0.108l-0.165,0.054c-0.071,0.025-0.145,0.059-0.216,0.094c-0.063,0.03-0.126,0.063-0.192,0.081
	c-0.049,0.013-0.104,0.017-0.168,0.02c-0.071,0.003-0.143,0.007-0.216,0.021c-0.284,0.055-0.506,0.081-0.769,0.087l-0.852,0.019
	c-0.013-0.075-0.021-0.156-0.023-0.251c-0.024-0.949,0.017-3.152,0.335-4.694c0.319-1.553,0.39-1.768,1.47-3.109
	c0.637-0.792,0.996-1.426,1.312-1.987c0.244-0.435,0.456-0.809,0.75-1.164c0.368-0.447,1.243-1.435,1.97-2.254
	c0.128,0.033,0.252,0.065,0.366,0.094c0.277,0.071,0.503,0.121,0.715,0.164l-0.12,0.171c-0.358,0.385-0.812,1.396,0.031,2.474
	c0.505,0.645,1.727,1.659,3.018,2.733c1.091,0.907,2.22,1.845,2.886,2.543c1.439,1.5,1.688,2.445,1.773,2.721
	C702.079,48.73,701.911,48.856,701.789,48.948z M708.026,46.845c-0.101,0.262-0.212,0.571-0.332,0.915
	c-0.611-0.58-1.403-1.293-2.109-1.801c-0.62-0.445-0.896-0.668-1.174-0.891c-0.325-0.259-0.658-0.528-1.537-1.15
	c-1.552-1.1-2.704-2.492-2.802-3.385c-0.037-0.333-0.139-0.55-0.217-0.708c-0.103-0.22-0.155-0.354,0.397-1.005
	c0.359-0.003,0.749-0.01,1.193-0.021c0.94-0.021,2.291-0.032,4.013-0.032c1.823,0,3.553,0.012,4.22,0.018
	C709.557,40.218,708.639,45.25,708.026,46.845z M717.483,42.488c-0.053,0.239-0.191,0.831-0.378,1.529
	c-0.194,0.718-0.228,0.789-0.321,0.976l-0.082,0.176c-0.085,0.176-0.824,0.712-1.464,1.101l-0.062,0.037l-0.424,0.734
	c-0.122,0.06-0.464,0.189-0.922,0.142c-0.516-0.057-1.031-0.018-1.448,0.013c-0.066,0.005-0.115,0.006-0.176,0.01
	c0.086-0.252,0.128-0.477,0.181-0.771c0.033-0.19,0.073-0.413,0.139-0.701c0.22-1.008,2.017-4.247,2.606-5.312l0.085-0.154
	c0.044-0.079,0.122-0.22,0.221-0.406c0.691-0.096,1.436-0.187,1.942-0.187c0.159,0,0.282,0.01,0.369,0.028
	c0.45,0.091,0.558,0.311,0.584,0.402c-0.06,0.156-0.231,0.591-0.558,1.295C717.482,42.037,717.433,42.317,717.483,42.488z
	 M724.514,45.092c-0.122,0.296-1.198,2.915-1.279,3.577c-0.018,0.158,0.026,0.56,0.11,1.06c-0.031,0.007-0.058,0.014-0.087,0.021
	c-0.22-0.094-0.413-0.12-0.674-0.149c-0.071-0.008-0.149-0.016-0.234-0.028c-0.195-0.367-0.465-0.783-0.903-0.783
	c-0.244,0-0.483,0.136-0.731,0.412c-0.074-0.015-0.141-0.029-0.189-0.038c-0.003-0.047-0.008-0.103-0.021-0.166
	c-0.082-0.451-0.473-0.596-0.851-0.739c-0.279-0.104-0.595-0.222-0.85-0.471c-0.196-0.193-0.414-0.304-0.65-0.329
	c0.431-0.835,1.691-3.1,2.439-4.084c0.537-0.708,1.193-1.805,1.626-2.532c0.16-0.267,0.29-0.485,0.379-0.625
	c0.771,0.218,1.387,0.477,1.585,0.767c0.62,0.917,0.626,2.087,0.629,2.472l0.001,0.097
	C724.815,43.704,724.655,44.476,724.514,45.092z M724.561,36.732l0.528-0.541l0.4,0.978
	C725.149,37.018,724.829,36.869,724.561,36.732z"/>
<path fill="#58595B" d="M669.218,164.022c1.008,1.613,3.728,1.613,3.728,1.613l0.302-3.626c0,0,1.838-1.148,2.822-0.605
	c0.984,0.543,1.714,2.52,1.714,2.52l-0.302,1.007l1.411,0.706l0.603-0.706c0,0,2.014,1.915,1.916,2.419
	c-0.102,0.506-0.102,1.211-0.102,1.211l1.61,0.232l0.204-1.545l1.009,0.204l-0.102,3.326l3.227,0.101l-0.201-2.42l1.208-0.1v2.619
	l3.93,0.303l-0.099-2.52h1.108l0.403,2.52l2.923,0.2l0.472-1.714l1.563,1.762l2.701-0.146l0.102-3.832l1.892-1.889l0.124-2.745
	c0,0,1.31-2.522,2.619,0.101c1.312,2.619,0.708,3.123,0.505,3.931c-0.201,0.806,3.79-2.063,3.79-2.063l0.947-7.412
	c0,0,2.676-0.781,0.228-7.647c0,0,8.338-23.393-6.88-30.446c-15.219-7.055-20.458-6.955-32.25,2.72
	c-8.567,6.248-4.031,21.669-4.233,22.575c0,0-0.504,7.559-1.108,9.07s0.302,3.526,0.908,4.131
	C668.714,158.883,668.208,162.41,669.218,164.022z M694.9,145.277c1.008-2.82,5.944-3.225,9.574-3.125
	c3.629,0.102,3.021,4.84,3.021,4.84c0,2.416,0.203,5.543-6.549,5.141C694.192,151.728,693.893,148.1,694.9,145.277z M686.05,155.885
	c0.906-3.148,4.131-8.088,4.131-8.088s3.427,6.249,3.83,8.466c0.403,2.218,0.604,4.032-1.109,4.335
	c-1.611-1.814-2.922-2.822-2.922-2.822l-1.976,3.197C688.004,160.973,685.145,159.037,686.05,155.885z M675.668,142.152
	c3.626-0.1,8.567,0.305,9.574,3.125c1.008,2.822,0.706,6.45-6.047,6.855c-6.754,0.402-6.55-2.725-6.55-5.141
	C672.645,146.992,672.04,142.254,675.668,142.152z"/>
<path fill="#58595B" d="M658.014,76.292c-0.294-0.16-0.584-0.323-0.897-0.468c-5.904-2.736-10.304-4.391-14.17-4.833
	c-6.098-0.697-10.863,1.632-18.081,7.553c-8.567,6.249-4.03,21.668-4.233,22.577c0,0-0.503,7.557-1.108,9.071
	c-0.604,1.509,0.304,3.524,0.907,4.13c0.806,1.008,0.301,4.535,1.31,6.148c1.007,1.611,3.729,1.611,3.729,1.611l0.303-3.625
	c0,0,1.836-1.148,2.822-0.606c0.984,0.544,1.712,2.521,1.712,2.521l-0.302,1.006l1.411,0.707l0.604-0.707
	c0,0,2.015,1.915,1.915,2.42c-0.1,0.504-0.1,1.21-0.1,1.21l1.608,0.232l0.204-1.542l1.008,0.2l-0.1,3.326l3.225,0.103l-0.2-2.422
	l1.208-0.1v2.622l3.931,0.301l-0.101-2.521h1.108l0.404,2.521l2.922,0.202l0.473-1.715l1.563,1.764l2.702-0.151l0.101-3.829
	l1.892-1.888l0.125-2.748c0,0,1.31-2.521,2.62,0.101c1.31,2.621,0.707,3.127,0.504,3.931c-0.202,0.808,3.791-2.063,3.791-2.063
	l0.945-7.41c0,0,2.676-0.782,0.229-7.648C663.997,106.271,671.979,83.843,658.014,76.292z M631.72,108.577
	c-6.752,0.403-6.55-2.72-6.55-5.14c0,0-0.606-4.737,3.023-4.836c3.628-0.102,8.565,0.303,9.574,3.125
	C638.774,104.549,638.472,108.174,631.72,108.577z M645.427,117.043c-1.613-1.814-2.924-2.82-2.924-2.82l-1.974,3.197
	c0,0-2.861-1.936-1.954-5.087c0.906-3.149,4.13-8.09,4.13-8.09s3.427,6.249,3.83,8.466
	C646.938,114.93,647.139,116.741,645.427,117.043z M653.47,108.577c-6.753-0.403-7.054-4.028-6.047-6.851
	c1.009-2.822,5.946-3.228,9.576-3.125c3.628,0.099,3.022,4.836,3.022,4.836C660.021,105.857,660.223,108.98,653.47,108.577z"/>
<path fill="#58595B" d="M716.69,114.828c1.01,1.61,3.731,1.61,3.731,1.61l0.301-3.624c0,0,1.837-1.148,2.821-0.605
	s1.715,2.52,1.715,2.52l-0.303,1.006l1.412,0.707l0.604-0.707c0,0,2.017,1.914,1.914,2.42c-0.098,0.504-0.098,1.211-0.098,1.211
	l1.606,0.231l0.204-1.544l1.008,0.203l-0.1,3.326l3.226,0.102l-0.202-2.421l1.208-0.101v2.622l3.93,0.302l-0.099-2.521h1.108
	l0.403,2.521l2.922,0.201l0.472-1.715l1.563,1.764l2.703-0.15l0.1-3.83l1.892-1.888l0.124-2.748c0,0,1.31-2.521,2.619,0.101
	c1.312,2.621,0.708,3.127,0.505,3.931c-0.201,0.808,3.79-2.062,3.79-2.062l0.948-7.411c0,0,2.675-0.781,0.227-7.648
	c0,0,7.015-19.711-3.613-28.4c-0.947-0.774-2.02-1.47-3.264-2.047c-15.222-7.053-20.462-6.954-32.252,2.72
	c-0.922,0.671-1.683,1.453-2.321,2.306c-5.319,7.093-1.733,19.461-1.912,20.271c0,0-0.504,7.558-1.109,9.07
	c-0.604,1.511,0.305,3.525,0.907,4.131C716.188,109.688,715.683,113.215,716.69,114.828z M726.67,102.936
	c-6.754,0.402-6.552-2.721-6.552-5.141c0,0-0.604-4.737,3.025-4.836c3.628-0.102,8.565,0.304,9.572,3.125
	C733.724,98.906,733.422,102.532,726.67,102.936z M740.377,111.4c-1.615-1.814-2.923-2.82-2.923-2.82l-1.976,3.197
	c0,0-2.861-1.936-1.954-5.086c0.905-3.15,4.13-8.09,4.13-8.09s3.429,6.25,3.831,8.466C741.889,109.285,742.09,111.099,740.377,111.4
	z M748.42,102.936c-6.752-0.403-7.053-4.03-6.048-6.852c1.009-2.821,5.947-3.227,9.576-3.125c3.628,0.1,3.022,4.836,3.022,4.836
	C754.971,100.215,755.172,103.338,748.42,102.936z"/>
</svg>
