<?xml version="1.0" encoding="utf-8"?>
<!-- Generator: Adobe Illustrator 16.0.4, SVG Export Plug-In . SVG Version: 6.00 Build 0)  -->
<!DOCTYPE svg PUBLIC "-//W3C//DTD SVG 1.1//EN" "http://www.w3.org/Graphics/SVG/1.1/DTD/svg11.dtd">
<svg version="1.1" id="Layer_1" xmlns="http://www.w3.org/2000/svg" xmlns:xlink="http://www.w3.org/1999/xlink" x="0px" y="0px"
	 width="1400px" height="196px" viewBox="0 0 1400 196" enable-background="new 0 0 1400 196" xml:space="preserve">
<g>
	<path opacity="0.2" fill="#FFC30E" d="M723.143,92.959c-3.629,0.099-3.024,4.836-3.024,4.836c0,2.42-0.202,5.543,6.552,5.141
		c6.752-0.403,7.054-4.029,6.045-6.852C731.708,93.263,726.771,92.857,723.143,92.959z"/>
	<path opacity="0.2" fill="#FFC30E" d="M704.474,142.152c-3.63-0.101-8.565,0.305-9.573,3.125c-1.008,2.822-0.708,6.451,6.046,6.855
		c6.752,0.402,6.549-2.725,6.549-5.141C707.495,146.992,708.104,142.254,704.474,142.152z"/>
	<path opacity="0.2" fill="#FFC30E" d="M737.654,98.602c0,0-3.226,4.939-4.13,8.09c-0.907,3.149,1.954,5.086,1.954,5.086
		l1.976-3.197c0,0,1.308,1.006,2.923,2.82c1.713-0.301,1.512-2.115,1.108-4.334C741.083,104.852,737.654,98.602,737.654,98.602z"/>
	<path opacity="0.2" fill="#FFC30E" d="M751.948,92.959c-3.629-0.102-8.567,0.304-9.576,3.125c-1.005,2.822-0.704,6.449,6.048,6.852
		s6.551-2.721,6.55-5.141C754.97,97.795,755.576,93.059,751.948,92.959z"/>
	<path opacity="0.2" fill="#FFC30E" d="M690.181,147.797c0,0-3.225,4.939-4.131,8.088c-0.905,3.152,1.954,5.088,1.954,5.088
		l1.977-3.197c0,0,1.311,1.009,2.922,2.822c1.713-0.303,1.512-2.117,1.108-4.334C693.608,154.046,690.181,147.797,690.181,147.797z"
		/>
	<path opacity="0.2" fill="#FFC30E" d="M642.705,104.243c0,0-3.224,4.94-4.13,8.09c-0.907,3.151,1.954,5.087,1.954,5.087
		l1.974-3.197c0,0,1.312,1.006,2.924,2.82c1.712-0.302,1.511-2.113,1.108-4.334C646.132,110.492,642.705,104.243,642.705,104.243z"
		/>
	<path opacity="0.2" fill="#FFC30E" d="M628.193,98.602c-3.629,0.099-3.023,4.836-3.023,4.836c0,2.42-0.202,5.543,6.55,5.14
		s7.055-4.028,6.047-6.851C636.758,98.904,631.821,98.499,628.193,98.602z"/>
	<path opacity="0.2" fill="#FFC30E" d="M656.999,98.602c-3.63-0.104-8.567,0.303-9.576,3.125c-1.007,2.822-0.706,6.447,6.047,6.851
		s6.552-2.72,6.551-5.14C660.021,103.438,660.627,98.7,656.999,98.602z"/>
	<path opacity="0.2" fill="#FFC30E" d="M675.668,142.152c-3.628,0.102-3.023,4.84-3.023,4.839c0,2.416-0.203,5.543,6.551,5.141
		c6.753-0.405,7.055-4.032,6.047-6.854C684.235,142.457,679.294,142.052,675.668,142.152z"/>
	<path opacity="0.2" fill="#FFC30E" d="M788.37,41.059c-0.051-0.111-0.097-0.224-0.148-0.334c-0.062,0.006-0.127,0.011-0.191,0.017
		c-0.425,0.041-0.888,0.066-1.201-0.021c-0.16-0.045-0.404-0.174-0.621-0.33c-0.102-0.072-0.206-0.112-0.288-0.145
		c-0.048-0.02-0.096-0.035-0.144-0.065c-0.176-0.106-0.335-0.245-0.505-0.391l-0.16-0.138c-0.197-0.162-0.387-0.243-0.62-0.243
		c-0.003,0-0.006,0-0.008,0c-0.058,0.004-0.232,0.018-0.347,0.161c-0.112,0.144-0.092,0.308-0.076,0.429l0.055,0.742
		c0.006,0.046,0.012,0.094-0.002,0.17c-0.015,0.03-0.032,0.074-0.044,0.137l-0.015,0.071c-0.01,0.066-0.01,0.066-0.04,0.116
		c-0.013,0.024-0.033,0.047-0.052,0.07c-0.03,0.037-0.059,0.073-0.08,0.106l-0.106,0.162c-0.07,0.106-0.139,0.211-0.212,0.308
		c-0.036,0.047-0.082,0.083-0.142,0.13c-0.041,0.031-0.081,0.063-0.119,0.098c-0.051,0.047-0.1,0.094-0.146,0.141
		c-0.073,0.075-0.146,0.146-0.234,0.213c-0.058,0.044-0.107,0.09-0.16,0.133c-0.1,0.09-0.151,0.135-0.239,0.154
		c-0.12,0.027-0.274,0.03-0.423,0.032c-0.086,0.001-0.173,0.002-0.252,0.007l-0.716,0.048c-0.042,0.002-0.094,0.011-0.15,0.02
		c-0.062,0.01-0.136,0.023-0.194,0.04c-0.006-0.01-0.018-0.046-0.028-0.07c-0.039-0.109-0.104-0.293-0.32-0.38
		c-0.144-0.058-0.374-0.033-0.593,0.005c-0.061,0.011-0.114,0.021-0.157,0.023l-1.231,0.078c-0.178,0.006-0.381,0.012-0.573,0.068
		c-0.104,0.031-0.198,0.07-0.293,0.108c-0.081,0.033-0.162,0.066-0.248,0.09c-0.211,0.058-0.294,0.15-0.363,0.249
		c-0.021,0.032-0.04,0.054-0.115,0.104c-0.062,0.025-0.155,0.065-0.237,0.159c-0.062,0.077-0.094,0.16-0.118,0.228
		c-0.006,0.021-0.014,0.043-0.021,0.056c-0.033,0.06-0.084,0.115-0.145,0.179c-0.06,0.064-0.118,0.13-0.169,0.201
		c-0.048,0.069-0.095,0.145-0.142,0.222c-0.073,0.125-0.146,0.242-0.227,0.316c-0.056,0.049-0.096,0.055-0.132,0.055
		c-0.086,0-0.198-0.045-0.316-0.092c-0.048-0.02-0.102-0.039-0.149-0.057c-0.081-0.028-0.171-0.047-0.267-0.065
		c-0.095-0.018-0.188-0.035-0.255-0.067c-0.043-0.022-0.085-0.046-0.124-0.069c-0.071-0.043-0.145-0.083-0.232-0.121
		c-0.096-0.039-0.177-0.094-0.26-0.149c-0.133-0.087-0.281-0.185-0.472-0.234c-0.024-0.044-0.053-0.086-0.08-0.13l-0.05-0.315
		h-0.268c-0.028,0-0.068,0.003-0.128,0.011c-0.104,0.015-0.19,0.075-0.32,0.174c-0.023,0.019-0.048,0.037-0.056,0.042l-0.057,0.026
		c-0.131,0.062-0.195,0.092-0.244,0.144c-0.051,0.051-0.094,0.106-0.135,0.164c-0.029,0.042-0.062,0.087-0.103,0.121
		c-0.032,0.031-0.061,0.06-0.088,0.087c-0.024,0.025-0.047,0.049-0.082,0.074c-0.128,0.095-0.203,0.192-0.318,0.341
		c-0.161,0.208-0.359,0.321-0.592,0.454l-0.22,0.129c-0.139,0.083-0.206,0.126-0.341,0.133c-0.127,0.008-0.255,0.017-0.382,0.025
		l-0.151,0.012c-0.415,0.026-0.715,0.082-1.035,0.188c-0.195,0.064-0.351,0.086-0.547,0.098l-0.112,0.011
		c-0.04,0.005-0.076,0.011-0.166-0.003c-0.035-0.015-0.085-0.035-0.151-0.044c-0.389-0.059-0.953-0.021-1.386,0.065
		c-0.231,0.046-0.425,0.172-0.593,0.286c-0.099,0.064-0.195,0.131-0.303,0.178c-0.112,0.046-0.2,0.064-0.372,0.077l-0.67,0.042
		l-0.225-0.003c-0.165,0-0.351,0.012-0.486,0.106c-0.084,0.059-0.129,0.13-0.157,0.18c-0.023,0.018-0.058,0.03-0.087,0.047
		c-0.053,0.026-0.106,0.052-0.152,0.081c-0.013,0.01-0.027,0.017-0.042,0.026c-1.424,0.206-2.837,0.427-4.156,0.637
		c-0.026-0.007-0.059-0.021-0.095-0.041c-0.075-0.038-0.181-0.092-0.328-0.102l-0.085-0.003c-0.114,0-0.232,0.013-0.35,0.026
		c-0.075,0.008-0.146,0.017-0.218,0.021c-0.251,0.012-0.398,0.095-0.554,0.182l-0.082,0.046c-0.25,0.136-0.683,0.301-1.048,0.276
		l-0.051-0.175h-0.206c-0.015,0-0.042-0.012-0.074-0.024c-0.061-0.025-0.145-0.058-0.307-0.065c-0.049,0-0.095,0.004-0.142,0.008
		c-0.029,0.002-0.057,0.005-0.126,0.003c-0.287-0.059-0.649-0.044-1.01-0.016l-0.22,0.016c-0.078,0.006-0.166,0.017-0.26,0.029
		c-0.126,0.018-0.262,0.035-0.389,0.035c-0.126,0-0.184-0.02-0.208-0.034c-0.05-0.026-0.09-0.059-0.129-0.09
		c-0.111-0.086-0.264-0.207-0.569-0.207l-0.076-0.002c-0.096,0-0.165,0.009-0.22,0.024c-0.144,0.041-0.221,0.122-0.273,0.176
		l-0.065,0.053c-0.156,0.084-0.364,0.2-0.511,0.2c-0.053,0-0.076-0.015-0.095-0.031l-0.081-0.071
		c-0.276-0.249-0.622-0.555-1.051-0.555c-0.211,0-0.362,0.077-0.482,0.139c-0.055,0.028-0.112,0.059-0.178,0.077l-0.107,0.025
		c-0.133,0.028-0.299,0.065-0.442,0.177c-0.069,0.053-0.119,0.112-0.16,0.16c-0.044,0.052-0.065,0.075-0.078,0.079l-0.769,0.039
		c-0.041,0.002-0.084,0.008-0.131,0.014c-0.048,0.006-0.1,0.014-0.144,0.014l-0.062-0.018c-0.039-0.015-0.085-0.035-0.144-0.043
		c-0.181-0.028-0.396-0.011-0.585,0.011c-0.112,0.015-0.222,0.047-0.328,0.079c-0.108,0.034-0.22,0.07-0.326,0.062h-0.021
		c-0.07-0.172-0.194-0.261-0.37-0.264c-0.133,0-0.229,0.083-0.297,0.146c-0.059,0.034-0.126,0.066-0.192,0.098
		c-0.06,0.028-0.116,0.057-0.175,0.085l-0.142,0.081c-0.143,0.083-0.224,0.127-0.388,0.135c-0.153,0.009-0.329,0.012-0.395-0.04
		c-0.027-0.033-0.067-0.083-0.132-0.125c-0.075-0.048-0.146-0.062-0.15-0.04c-0.026-0.037-0.058-0.18-0.073-0.267
		c-0.048-0.231-0.127-0.622-0.496-0.622c-0.104,0-0.209,0.036-0.322,0.109c-0.166,0.106-0.309,0.231-0.445,0.351
		c-0.121,0.107-0.242,0.214-0.377,0.302c-0.098,0.062-0.169,0.127-0.245,0.2l-0.158,0.141c-0.115,0.099-0.189,0.169-0.282,0.362
		c-0.042,0.091-0.107,0.16-0.208,0.254c-0.023,0.022-0.063,0.065-0.103,0.111c-0.023,0.029-0.048,0.057-0.098,0.076
		c-0.05,0.014-0.117,0.035-0.185,0.077c-0.005,0.002-0.005,0.006-0.012,0.009c-0.828,0.064-1.657,0.122-2.484,0.193
		c-0.076-0.01-0.156-0.015-0.231-0.027c-0.238-0.04-0.498-0.06-0.771-0.06c-0.818,0-1.718,0.178-2.591,0.431
		c-0.572,0.058-1.147,0.105-1.721,0.166c-0.051-0.176-0.109-0.323-0.183-0.428c-0.195-0.292-1.198-0.899-1.622-1.147l-1.197-0.238
		c0.08-0.592,0.146-1.254,0.17-1.932c0.286-0.668,0.507-1.688,0.022-2.843l-0.459-3.128l-0.139-1.974l-0.571-2.032
		c-0.001-0.019-0.126-1.821-0.133-2.082c-0.002-0.169-0.037-0.479-0.067-0.718c0.423-0.024,1.2-0.128,2.174-0.528
		c0.32-0.133,0.636-0.375,0.938-0.668c1.347-0.278,2.601-0.572,3.691-0.847c-0.079,0.188-0.075,0.32-0.025,0.516
		c0.029,0.111,0.066,0.251,0.072,0.537c0.016,0.691,0.017,0.781,0.339,1.132c0.053,0.059,0.119,0.13,0.2,0.226
		c0.162,0.19,0.163,0.255,0.166,0.385c0.002,0.177,0.008,0.424,0.28,0.85c0.171,0.266,0.372,0.4,0.6,0.4
		c0.168,0,0.297-0.079,0.39-0.134c0.444-0.242,0.537-0.39,0.636-0.606c0.019-0.042,0.042-0.09,0.042-0.131
		c0.007,0,0.033,0.012,0.055,0.041c0.025,0.037,0.02,0.071,0.017,0.081c-0.122,0.565,0.126,0.943,0.807,1.225
		c0.735,0.304,1.315,0.173,1.314,0.173l0.098-0.02l0.693-0.842c0.155-0.034,0.492-0.108,0.874-0.183
		c0.464-0.091,0.553-0.464,0.639-0.826c0.062-0.282,0.146-0.633,0.396-1.06c0.124-0.208,0.195-0.407,0.223-0.597
		c0.131-0.479,0.264-1.216,0.379-2.366c0.086-0.866,0.039-2.297-0.006-3.681c-0.002-0.041-0.003-0.08-0.004-0.122l3.903-4.135
		c0.12,0.188,0.45,0.703,0.599,0.924c0.117,0.172,0.431,0.571,0.783,0.571c0.004,0,0.007,0,0.012,0
		c0.158-0.004,0.298-0.086,0.386-0.233c0.027-0.045,0.058-0.097,0.086-0.149c0.05,0.082,0.108,0.167,0.181,0.253
		c0.278,0.344,0.589,0.516,0.925,0.516c0.304,0,0.628-0.139,0.974-0.418c0.295-0.236,0.479-0.39,0.616-0.503
		c0.182-0.15,0.271-0.226,0.421-0.333c0.259-0.189,0.523-0.744,0.646-1.029c0.117-0.048,0.311-0.134,0.537-0.258
		c0.235-0.126,0.775-0.469,0.754-0.907c-0.008-0.16-0.093-0.381-0.442-0.526c-0.256-0.129-0.312-1.668-0.345-2.587
		c-0.023-0.687-0.048-1.398-0.123-2.012c-0.103-0.867-0.264-1.712-0.406-2.458c-0.161-0.837-0.301-1.558-0.312-2.065
		c-0.007-0.316-0.019-0.525-0.029-0.685c-0.021-0.343-0.025-0.423,0.076-0.892c0.005-0.022,0.009-0.051,0.015-0.073
		c0.109,0.228,0.176,0.375,0.179,0.382l0.531,1.248V9.274c0-1.249-0.239-2.228-0.577-2.998c-0.012-0.057-0.02-0.117-0.031-0.169
		c-0.186-0.699-2.396-3.477-3.132-3.61c-0.077-0.087-0.202-0.401-0.285-0.611c-0.274-0.692-0.651-1.639-1.444-1.547
		c-0.346,0.041-0.64,0.502-0.832,0.896c-0.159-0.122-0.389-0.228-0.638-0.224c-0.131,0.003-0.251,0.06-0.342,0.165
		c-0.278,0.312-0.284,1.098-0.263,1.517c-0.165,0.082-0.459,0.21-0.816,0.271c-0.189,0.033-0.23,0.003-0.339-0.079
		c-0.157-0.116-0.375-0.269-0.872-0.262c-0.695,0.017-1.433,0.539-2.284,1.143c-0.243,0.171-0.495,0.35-0.755,0.524
		c-0.744,0.493-1.663,0.749-2.4,0.955c-0.355,0.099-0.664,0.186-0.9,0.284c-0.308,0.125-0.484,0.129-0.676,0.133
		c-0.22,0.006-0.443,0.01-0.767,0.186c-0.193,0.105-0.348,0.243-0.508,0.389c-0.323,0.292-0.654,0.594-1.428,0.724
		c-0.752,0.129-0.89,0.181-1.054,0.407c-0.043,0.06-0.102,0.142-0.357,0.298c-0.447,0.268-0.659,0.454-0.847,0.617
		c-0.157,0.138-0.293,0.258-0.558,0.421c-0.203,0.125-0.303,0.114-0.338,0.105c-0.083-0.025-0.062-0.046-0.062-0.046l-0.036-0.065
		c-0.006-0.007-0.528-0.696-0.794-1.372l-0.028-0.076c-0.27-0.697-0.503-1.298-1.278-1.773c-0.167-0.102-0.412-0.22-0.638-0.101
		c-0.242,0.131-0.259,0.418-0.271,0.65c-0.006,0.075-0.014,0.204,0.003,0.208c-0.319,0.229-0.185,0.59-0.054,0.941
		c0.104,0.271,0.243,0.641,0.33,1.157c0.053,0.292,0.101,0.492,0.134,0.63c-0.071,0.012-0.157,0.03-0.265,0.06
		c-0.398,0.113-0.544,0.408-0.61,0.64c-0.384-0.352-0.591-0.349-1.11-0.289c-0.219,0.023-0.521,0.057-0.956,0.067
		c-1.188,0.029-2.676,0.655-3.87,1.159c-0.292,0.124-0.564,0.238-0.812,0.334c-0.627,0.247-1.783,0.507-2.957,0.745
		c-0.298-0.209-1.027-0.682-1.562-0.682c-0.099,0-0.188,0.015-0.268,0.044c-0.283,0.104-0.369,0.135-0.483,0.362
		c-0.054,0.109-0.168,0.333-0.608,0.854c-1.349,0.267-3.766,0.171-5.501-0.072c-1.797-0.25-3.275-0.098-4.607,0.104
		c-2.335,0.355-4.293,0.554-5.817,0.587c-1.942,0.045-2.604,0.481-4.566,1.779l-0.594,0.391c-1.561,1.023-3.257,1.521-4.244,1.743
		c-0.995-0.055-2.311-0.193-2.949-0.417c-1.145-0.398-2.595-0.266-3.931,0.372c-1.053,0.501-2.825,1.524-3.888,2.135
		c-0.364,0.211-0.643,0.371-0.777,0.444c-0.2,0.11-0.458,0.367-0.745,0.735c-0.222-0.113-0.462-0.231-0.722-0.356
		c-0.896-0.438-1.426-0.242-2.831,0.521c-1.403,0.763-1.914,1.871-3.387,3.641c-1.471,1.768-0.686,1.111-1.609,3.599
		c-0.924,2.486-0.717,3.853-1.475,5.788c-0.149,0.382-0.223,0.671-0.251,0.901c-10.444,2.899-19.667,4.347-26.515,5.061
		c-4.647,0.485-8.621,0.681-11.618,0.746c-0.73-0.42-1.178-0.43-1.282-0.428c-0.083-0.023-0.396-0.108-0.668-0.195
		c-0.304-0.097-0.539-0.3-0.784-0.679c-0.091-0.143-0.159-0.229-0.215-0.3c-0.106-0.136-0.155-0.198-0.262-0.573
		c-0.079-0.276-0.181-0.534-0.369-0.534c-0.004,0-0.007,0-0.012,0c-0.209-0.277-0.465-0.658-0.497-0.801
		c-0.009-0.043-0.018-0.087-0.023-0.129c-0.039-0.226-0.082-0.479-0.422-0.956c-0.24-0.336-0.319-0.555-0.409-0.81
		c-0.049-0.137-0.1-0.28-0.179-0.451c-0.12-0.263-0.21-0.42-0.282-0.545c-0.061-0.105-0.11-0.191-0.158-0.309
		c-0.039-0.094-0.07-0.206-0.108-0.34c-0.073-0.257-0.165-0.577-0.35-0.971c-0.08-0.17-0.153-0.301-0.225-0.424
		c-0.17-0.298-0.294-0.516-0.379-1.148c-0.022-0.153-0.056-0.325-0.094-0.48c-0.026-0.691-0.152-1.823-0.249-2.373
		c-0.083-0.473-0.241-0.963-0.386-1.339c0.128-0.081,0.239-0.202,0.322-0.383c0.498-1.089,0.437-2.411,0.319-3.26
		c0.036-0.071,0.067-0.159,0.082-0.275c0.021-0.196,0.033-0.351,0.038-0.458c0.15-0.014,0.212-0.06,0.244-0.102
		c0.098-0.112,0.062-0.301-0.013-0.715l-0.031-0.179c0.018-0.168,0.066-0.353,0.097-0.383l0.035-0.012
		c0.236-0.077,0.275-0.222,0.269-0.732c0.181-0.172,0.809-0.743,1.359-0.931c0.105-0.036,0.387-0.133,0.355-0.367
		c-0.042-0.299-0.585-0.313-0.695-0.313c-0.082,0-0.199,0.008-0.297,0.044c-0.24,0.088-0.716,0.185-0.906,0.22
		c-0.062-0.072-0.148-0.192-0.177-0.296c-0.05-0.189-0.169-0.67-0.179-1.102c-0.012-0.553-0.268-1.024-0.833-1.528
		c-0.212-0.19-0.448-0.281-0.726-0.281c-0.25,0-0.481,0.074-0.685,0.141c-0.133,0.042-0.256,0.083-0.34,0.084
		c-0.422,0.01-1.772,0.615-2.085,0.838c-0.324,0.232-0.639,0.568-0.65,0.582l-0.059,0.062l0.014,0.087
		c0.032,0.193,0.147,0.833,0.33,1.011c0.052,0.079,0.068,0.485,0.044,0.913c-0.24,0.012-0.749,0.073-1.161,0.385
		c-0.445,0.335-0.561,0.969-0.346,1.881c0.113,0.466,0.601,0.466,0.76,0.466c0.125,0,0.259-0.011,0.388-0.022
		c0.102-0.009,0.2-0.017,0.291-0.019c0.167-0.007,0.34-0.002,0.501,0.003c-0.002,0.005-0.005,0.013-0.006,0.017
		c-0.024,0.061-0.073,0.175-0.049,0.275c-0.059,0.197-0.147,0.325-0.231,0.45c-0.02,0.029-0.038,0.058-0.057,0.084
		c-0.053-0.019-0.115-0.034-0.188-0.034c-0.175,0-0.346,0.087-0.505,0.259l-0.7,0.757c-0.042,0.028-1.026,0.683-1.497,1.708
		c-0.46,0.993-0.814,2.155-0.914,2.741c-0.054,0.308-0.144,0.604-0.239,0.917c-0.07,0.229-0.14,0.466-0.203,0.719
		c-0.073,0.305-0.131,0.663-0.193,1.043c-0.062,0.385-0.132,0.82-0.23,1.261c-0.17,0.777-0.139,1.585-0.123,1.975l0.006,0.147
		c0.001,0.083-0.039,0.215-0.077,0.342c-0.069,0.234-0.143,0.477-0.044,0.668c0.033,0.063,0.056,0.128,0.078,0.192
		c0.054,0.153,0.114,0.328,0.287,0.498c0.211,0.206,0.835,0.924,0.839,0.93l0.497,0.593c-0.002,0.088-0.006,0.222-0.01,0.369
		c-0.021,0.067-0.021,0.163-0.021,0.278c0,0.293,0,0.293,0.05,0.348l0.018,0.018c0.006,0.089,0.014,0.187,0.022,0.287
		c0.116,1.514,0.244,3.022,0.415,3.382c0.284,0.609,1.068,1.706,1.288,1.977c0.166,0.204,0.554,1.09,0.134,2.429l-0.03,0.094
		c-0.142,0.443-0.3,0.947-0.235,1.445c0.056,0.424-0.148,1.603-0.368,2.394c-0.093,0.337-0.202,0.451-0.301,0.553
		c-0.102,0.106-0.208,0.216-0.233,0.481c-0.016,0.146-0.041,0.215-0.09,0.331c-0.077,0.196-0.185,0.466-0.301,1.253
		c-0.127,0.866-0.391,1.589-0.583,2.119c-0.085,0.235-0.158,0.438-0.206,0.612c-0.056,0.208-0.14,0.349-0.229,0.498
		c-0.04,0.065-0.079,0.135-0.118,0.21c-0.042-0.014-0.081-0.031-0.128-0.037c-0.006-0.105-0.074-0.168-0.115-0.253
		c-0.071-0.156,0.053-0.182-0.157-0.164c-0.058,0.006-0.226,0.14-0.282,0.171c-0.04,0.021-0.215,0.083-0.245,0.111
		c-0.095,0.088-0.153,0.199-0.262,0.287c-0.072,0.061-0.114,0.114-0.195,0.168c-0.116,0.079-0.18,0.163-0.275,0.275
		c-0.232,0.274-0.508,0.397-0.791,0.544c-0.219,0.114-0.343,0.218-0.597,0.22c-0.177,0.002-0.354,0.008-0.532,0.013
		c-0.354,0.008-0.647,0.04-0.975,0.135c-0.214,0.061-0.388,0.078-0.619,0.084c-0.086,0.001-0.187,0.018-0.27,0.008
		c-0.096-0.01-0.137-0.053-0.216-0.068c-0.372-0.069-0.916-0.051-1.296,0.008c-0.305,0.047-0.559,0.3-0.858,0.41
		c-0.153,0.055-0.274,0.074-0.462,0.079c-0.208,0.006-0.416,0.01-0.624,0.014c-0.156,0.004-0.487-0.055-0.624,0.029
		c-0.076,0.05-0.088,0.127-0.165,0.175c-0.043,0.028-0.1,0.051-0.154,0.076c-0.085-0.059-0.192-0.109-0.354-0.114
		c-0.092-0.006-0.194-0.007-0.255,0.01c-0.127,0.033-0.203,0.115-0.248,0.163l-0.062,0.05c-0.187,0.106-0.478,0.208-0.533,0.143
		l-0.067-0.075c-0.233-0.26-0.526-0.582-0.932-0.6c-0.168,0-0.295,0.066-0.396,0.12c-0.048,0.024-0.098,0.052-0.157,0.069
		l-0.097,0.021c-0.117,0.022-0.262,0.053-0.391,0.157c-0.055,0.044-0.103,0.099-0.147,0.151c-0.039,0.051-0.061,0.074-0.094,0.078
		l-0.165-0.007l-0.484,0.012c-0.036,0.001-0.074,0.004-0.115,0.008c-0.034,0.003-0.072,0.006-0.106,0.006l-0.076-0.02
		c-0.03-0.017-0.07-0.036-0.117-0.047c-0.159-0.036-0.349-0.031-0.516-0.016c-0.099,0.01-0.193,0.036-0.29,0.065
		c-0.083,0.025-0.159,0.048-0.266,0.048c-0.012,0-0.026-0.002-0.039-0.003c-0.055-0.174-0.16-0.267-0.325-0.277
		c-0.109,0-0.192,0.076-0.253,0.134c-0.053,0.031-0.114,0.062-0.175,0.091c-0.052,0.024-0.104,0.05-0.153,0.078l-0.127,0.073
		c-0.126,0.077-0.197,0.118-0.342,0.119l-0.078,0.001c-0.093,0-0.207-0.006-0.267-0.061c-0.022-0.033-0.056-0.083-0.108-0.128
		c-0.063-0.052-0.126-0.068-0.132-0.047c-0.024-0.039-0.044-0.182-0.056-0.268c-0.031-0.225-0.091-0.644-0.429-0.644
		c-0.083,0-0.172,0.031-0.269,0.094c-0.147,0.098-0.276,0.217-0.401,0.332c-0.11,0.101-0.22,0.203-0.341,0.284
		c-0.089,0.057-0.154,0.122-0.225,0.192l-0.14,0.132c-0.075,0.067-0.132,0.123-0.188,0.216c-0.162,0.002-0.316-0.013-0.429-0.079
		c-0.192-0.113-0.271-0.282-0.516-0.288c-0.074-0.002-0.196-0.018-0.267,0.001c-0.125,0.029-0.155,0.124-0.264,0.177
		c-0.274,0.136-0.691,0.356-0.948,0.109c-0.25-0.239-0.566-0.585-0.927-0.598c-0.239-0.012-0.374,0.126-0.597,0.179
		c-0.154,0.037-0.329,0.042-0.46,0.135c-0.13,0.093-0.188,0.236-0.352,0.274c-0.075,0.018-0.188-0.001-0.267,0
		c-0.182,0.002-0.368,0.009-0.551,0.012c-0.107,0.003-0.236,0.025-0.34,0.01c-0.08-0.012-0.14-0.057-0.195-0.069
		c-0.16-0.031-0.347-0.024-0.512-0.01c-0.242,0.02-0.46,0.142-0.712,0.111c-0.141-0.017-0.107,0.02-0.202-0.084
		c-0.067-0.071-0.03-0.188-0.157-0.194c-0.047-0.003-0.126,0.083-0.167,0.104c-0.116,0.061-0.258,0.113-0.382,0.171
		c-0.215,0.104-0.363,0.218-0.597,0.22c-0.191,0.001-0.435,0.018-0.605-0.099c-0.036-0.024-0.062-0.063-0.091-0.098
		c-0.06,0.229-0.109,0.462-0.168,0.692L0,88v108.003L1400,196V26.667L788.37,41.059z M747.169,20.548
		c0.04,0.177,0.125,0.381,0.275,0.588l-3.147,3.338c-0.004-0.303-0.004-0.583,0.004-0.801c0.032-0.73-0.099-1.416-0.217-2.021
		c-0.021-0.12-0.045-0.236-0.064-0.348L747.169,20.548z M746.734,18.766c0.012,0.034,0.019,0.062,0.02,0.081
		c0.003,0.139,0.069,0.39,0.148,0.642l-2.923,0.702c0.031-0.284-0.009-0.544-0.053-0.797c-0.068-0.397-0.129-0.739,0.123-1.149
		c0.002-0.003,0.004-0.007,0.006-0.01L746.734,18.766z M743.551,14.713c0.068-0.021,0.15,0.047,0.24,0.167
		c0.389,0.527,0.565,0.816,0.707,1.047c0.122,0.203,0.221,0.362,0.398,0.582c0.259,0.317,0.594,0.666,0.875,0.95l-1.385-0.275
		c0.021-0.379-0.052-0.722-0.113-1.006c-0.02-0.084-0.037-0.164-0.053-0.241c-0.025-0.142-0.101-0.548-0.396-0.612l-0.325-0.591
		C743.517,14.726,743.533,14.715,743.551,14.713z M734.694,28.769c0.155-0.111,0.552-0.318,0.82-0.453l0.234,0.289
		c0.006,0.005,0.455,0.513,0.683,1.019l-1.865-0.665C734.627,28.863,734.677,28.788,734.694,28.769z M733.971,29.905l0.86,0.307
		c-0.405,0.097-0.825,0.194-1.26,0.292C733.712,30.299,733.846,30.099,733.971,29.905z M725.089,36.191l0.4,0.978
		c-0.34-0.151-0.66-0.3-0.929-0.437L725.089,36.191z M720.594,43.375c0.537-0.708,1.193-1.805,1.626-2.532
		c0.16-0.267,0.29-0.485,0.379-0.625c0.771,0.218,1.388,0.477,1.585,0.767c0.62,0.917,0.626,2.087,0.629,2.472l0.002,0.097
		c0.001,0.15-0.159,0.922-0.301,1.538c-0.122,0.296-1.197,2.915-1.278,3.577c-0.019,0.158,0.025,0.56,0.109,1.06
		c-0.03,0.007-0.058,0.014-0.087,0.021c-0.22-0.094-0.413-0.12-0.674-0.149c-0.071-0.008-0.149-0.016-0.234-0.028
		c-0.194-0.367-0.465-0.783-0.902-0.783c-0.244,0-0.483,0.136-0.731,0.412c-0.074-0.015-0.141-0.029-0.188-0.038
		c-0.004-0.047-0.009-0.103-0.021-0.166c-0.082-0.451-0.473-0.596-0.851-0.739c-0.279-0.104-0.596-0.222-0.851-0.471
		c-0.195-0.193-0.414-0.304-0.649-0.329C718.586,46.624,719.846,44.359,720.594,43.375z M700.252,38.82
		c0.359-0.003,0.749-0.01,1.193-0.021c0.939-0.021,2.291-0.032,4.013-0.032c1.823,0,3.553,0.012,4.22,0.018
		c-0.121,1.433-1.039,6.465-1.651,8.06c-0.102,0.262-0.212,0.571-0.332,0.915c-0.611-0.58-1.403-1.293-2.109-1.801
		c-0.62-0.445-0.896-0.668-1.174-0.891c-0.325-0.259-0.658-0.528-1.537-1.15c-1.552-1.1-2.704-2.492-2.802-3.385
		c-0.037-0.333-0.14-0.55-0.217-0.708C699.752,39.605,699.7,39.471,700.252,38.82z M687.931,46.287
		c0.319-1.553,0.391-1.768,1.471-3.109c0.637-0.792,0.996-1.426,1.312-1.987c0.244-0.435,0.456-0.809,0.75-1.164
		c0.368-0.447,1.243-1.435,1.97-2.254c0.128,0.033,0.253,0.065,0.366,0.094c0.277,0.071,0.503,0.121,0.715,0.164l-0.119,0.171
		c-0.358,0.385-0.812,1.396,0.03,2.474c0.505,0.645,1.728,1.659,3.019,2.733c1.091,0.907,2.22,1.845,2.886,2.543
		c1.439,1.5,1.688,2.445,1.773,2.721c-0.023,0.057-0.191,0.183-0.313,0.275c-0.045,0.033-0.094,0.071-0.145,0.108
		c-0.009,0-0.02,0-0.028,0l-1.827,0.042c-0.436,0.009-0.77,0.083-1.168,0.198c-0.292,0.084-0.555,0.097-0.861,0.111
		c-0.106,0.006-0.216,0.01-0.329,0.02c-0.124,0.009-0.243,0.037-0.362,0.066c-0.083,0.021-0.166,0.042-0.256,0.051
		c-0.031,0.002-0.065,0.004-0.1,0.004l-0.284-0.007c-0.041,0-0.081,0.001-0.123,0.005c-0.116,0.008-0.229,0.037-0.337,0.066
		c-0.081,0.02-0.158,0.042-0.245,0.05c-0.094,0.008-0.19,0.01-0.285,0.01l-0.271-0.001l-0.251,0.002
		c-0.109,0-0.22-0.002-0.333-0.004c-0.119-0.002-0.24-0.006-0.361-0.006c-0.321,0-0.562,0.022-0.776,0.069
		c-0.334,0.074-0.7,0.19-1.006,0.317c-0.062,0.024-0.114,0.05-0.164,0.076c-0.086,0.042-0.148,0.073-0.232,0.087l-0.102,0.015
		c-0.082,0.01-0.18,0.021-0.301,0.067c-0.09,0.033-0.166,0.082-0.236,0.127c-0.05,0.031-0.1,0.065-0.128,0.074
		c-0.063,0.018-0.193-0.014-0.366,0.041c-0.095,0.031-0.184,0.083-0.268,0.134c-0.047,0.029-0.094,0.058-0.141,0.078
		c-0.1,0.044-0.203,0.076-0.305,0.108l-0.165,0.054c-0.071,0.025-0.146,0.059-0.216,0.094c-0.063,0.03-0.126,0.063-0.192,0.081
		c-0.049,0.013-0.104,0.017-0.168,0.02c-0.071,0.003-0.143,0.007-0.216,0.021c-0.284,0.055-0.506,0.081-0.77,0.087l-0.852,0.019
		c-0.013-0.075-0.021-0.156-0.023-0.251C687.572,50.032,687.613,47.829,687.931,46.287z M681.222,46.454
		c0.077-0.107,0.233-0.416,0.552-1.045c0.491-0.972,1.257-2.485,2.042-3.816c0.07-0.066,0.143-0.13,0.212-0.197
		c0.364-0.24,0.723-0.479,1.076-0.72c-0.025,0.704-0.102,1.725-0.171,2.655c-0.079,1.065-0.146,1.983-0.141,2.327
		c0.014,0.568-0.479,3.651-0.681,4.851c-0.061,0.12-0.252,0.498-0.419,0.814l-0.453,0.011c-0.274,0.007-0.453,0.053-0.692,0.12
		c-0.097,0.027-0.202,0.037-0.306,0.046c-0.147,0.015-0.3,0.03-0.45,0.079c-0.204-0.66-0.388-1.348-0.543-1.928
		c-0.163-0.614-0.292-1.098-0.393-1.355C680.625,47.703,680.98,46.803,681.222,46.454z M676.469,46.085
		c0.001,0.007,0.003,0.012,0.003,0.018c-0.416,0.274-0.832,0.535-1.247,0.788c0.023-0.04,0.047-0.079,0.068-0.119
		C675.679,46.55,676.072,46.32,676.469,46.085z M675.233,30.161c0.005-0.334,0.045-0.616,0.106-0.862
		c0.026,0.152,0.047,0.251,0.051,0.271c0.004,0.022,0.194,0.929,0.402,2.123c-0.197,0.066-0.393,0.129-0.589,0.194
		C675.221,31.498,675.219,30.977,675.233,30.161z M673.16,41.171c0.32-1.652,0,0,0.494-1.838c0.494-1.84-0.033-1.554,0.035-2.559
		c0.064-1.007,0.405-1.745,0.998-3.038c0.107-0.231,0.19-0.417,0.259-0.583c0.344-0.112,0.688-0.225,1.034-0.34
		c0.228,1.446,0.422,3.029,0.361,3.966c-0.156,2.48-1.294,3.819-1.521,4.062c-0.271,0.291-0.609,0.673-0.985,1.1
		c-0.239,0.269-0.492,0.556-0.753,0.847l-0.128,0.075C672.971,42.418,673.026,41.863,673.16,41.171z M673.526,50.11
		c0.056-0.187,0.332-0.739,0.707-1.438c0.838-0.473,1.667-0.968,2.481-1.496c0.188,0.54,0.418,0.913,0.51,1.046
		c0.062,0.276,0.331,1.444,0.672,2.343l0.031,0.086c0.214,0.564,0.441,1.176,0.571,1.904c-0.081,0.005-0.164,0.006-0.248,0.008
		c-0.163,0.004-0.327,0.009-0.491,0.01c-0.139,0-0.232,0.041-0.349,0.086c-0.092,0.021-0.187,0.039-0.282,0.057l-0.235,0.046
		c-0.04,0.008-0.087,0.012-0.147,0.012l-0.25-0.006c-0.1,0-0.182,0.008-0.259,0.025c-0.106,0.022-0.21,0.063-0.314,0.104
		c-0.074,0.03-0.146,0.061-0.224,0.078c-0.045,0.01-0.104,0.01-0.167,0.01c-0.105,0.001-0.225,0.002-0.353,0.046l-0.084,0.044
		c-0.007,0.005-0.014,0.009-0.021,0.014c-0.125-0.047-0.292-0.084-0.589-0.084l-0.151,0.002c-0.196,0-0.386-0.02-0.583-0.042
		c-0.32-0.032-0.67-0.046-1.031-0.021C672.858,52.398,673.101,51.52,673.526,50.11z M672.223,43.018
		c0.002,0.095,0.015,0.175,0.021,0.265l-0.049,0.029C672.216,43.134,672.223,43.018,672.223,43.018z M671.44,45.461
		c-0.012,0.054-0.022,0.108-0.031,0.162c-0.044,0.023-0.089,0.047-0.133,0.07C671.331,45.616,671.386,45.54,671.44,45.461z
		 M670.152,45.899c-0.098,0.139-0.158,0.307-0.204,0.481c-0.038,0.019-0.073,0.037-0.11,0.056
		C670.019,46.103,670.152,45.899,670.152,45.899z M668.879,48.982c0.688-0.343,1.41-0.707,2.156-1.092
		c-0.009,0.036-0.017,0.076-0.026,0.112c-0.831,0.466-1.564,0.873-2.172,1.206C668.848,49.133,668.865,49.057,668.879,48.982z
		 M665.332,50.753c0.156-0.003,0.308,0.028,0.456,0.12c0.18,0.11,0.364,0.178,0.549,0.224c-0.903,0.312-1.783,0.582-2.634,0.814
		c-0.026-0.034-0.053-0.065-0.078-0.098c0.048-0.034,0.096-0.067,0.14-0.099C664.499,51.323,664.997,51.007,665.332,50.753z
		 M665.195,48.658l1.487-0.879c0.005,0.085,0.014,0.15,0.02,0.217c-0.506,0.246-0.989,0.477-1.443,0.691
		C665.237,48.677,665.216,48.667,665.195,48.658z M669.569,50.968c-0.563,0.708-1.244,1.578-1.517,2.52l-0.57,0.213
		c-0.199,0.074-0.199,0.075-0.336,0.115c-0.151,0.044-0.463,0.133-1.331,0.405c-0.664,0.207-1.061,0.352-1.321,0.453
		c-0.006-0.18-0.016-0.36-0.033-0.533c-0.049-0.473-0.145-0.897-0.276-1.278C666.018,52.35,667.812,51.711,669.569,50.968z
		 M666.792,47.952c0.032-0.089,0.063-0.188,0.094-0.293l0.569-0.337c-0.024,0.117-0.041,0.226-0.057,0.335
		C667.191,47.758,666.99,47.856,666.792,47.952z M667.48,49.67c0.037-0.019,0.072-0.036,0.11-0.055
		c0.04,0.079,0.08,0.148,0.12,0.207c-0.007,0.004-0.016,0.008-0.023,0.012C667.628,49.778,667.561,49.724,667.48,49.67z
		 M668.325,49.488c-0.163,0.088-0.312,0.17-0.447,0.243c-0.018-0.079-0.029-0.159-0.036-0.239c0.146-0.071,0.293-0.143,0.442-0.217
		C668.295,49.35,668.31,49.419,668.325,49.488z M667.678,45.982l-0.526,0.31c0.04-0.361,0.062-0.747,0.053-1.148
		c-0.036-1.735,1.031-1.668,1.031-1.668C667.492,44.679,667.574,45.575,667.678,45.982z M641.307,40.358
		c6.901-0.72,16.199-2.182,26.728-5.11c0.061,0.177,0.075,0.392-0.049,0.746c-0.419,1.196-0.33,1.195-0.03,2.742
		c0.3,1.546,0.448,0.171-0.146,1.464c-0.593,1.292-1.024,1.85-1.024,1.85l0.614-0.288c-0.515,0.835-0.605,0.747-0.735,2.941
		c-0.043,0.729-0.047,1.365-0.036,1.904l-2.684,1.586c-0.324,0.061-0.907,0.222-1.034,0.603c-0.038,0.108-0.065,0.325,0.148,0.558
		c0.08,0.086,0.167,0.167,0.255,0.243c-0.639,0.287-1.161,0.521-1.556,0.694c-0.106-0.13-0.189-0.247-0.265-0.357
		c0.021-0.05,0.026-0.096,0.029-0.135c0.017-0.206-0.108-0.359-0.367-0.455c-0.029-0.01-0.066-0.014-0.099-0.023
		c-0.236-0.261-0.54-0.415-1.177-0.447c-0.023-0.001-0.043-0.001-0.066-0.003c-1.085-1.229-2.271-2.385-2.829-2.385
		c-0.152,0-0.281,0.066-0.364,0.184c-0.423,0.601,0.045,0.973,0.354,1.219c0.129,0.104,0.263,0.21,0.375,0.331
		c0.007,0.008,0.237,0.285,0.565,0.719c-0.2,0.028-0.363,0.059-0.465,0.092c-0.047,0.014-0.234,0.042-0.445,0.073
		c-1.798-0.491-5.71-1.676-6.568-2.093c-0.247-0.119-1.553-0.712-3.159-0.712c-0.556,0-1.081,0.079-1.581,0.218
		c-0.679,0.022-1.364,0.045-2.055,0.068c-2.938,0.098-5.871,0.194-7.393,0.243c-2.229-2.465-3.709-4.117-4.401-4.917
		c-0.28-0.325-0.545-0.602-0.795-0.843C634.382,40.957,637.829,40.721,641.307,40.358z M652.253,53.45
		c-2.593,0-4.64-0.237-5.92-0.44c-0.769-0.809-1.506-1.741-2.188-2.814c0.276-0.618,0.75-1.376,1.45-1.571
		c0.512-0.141,0.913-0.204,1.305-0.204c0.684,0,1.415,0.196,2.551,0.516c0.337,0.096,0.736,0.229,1.187,0.382
		c1.647,0.552,4.138,1.387,6.927,1.387c0.399,0,0.797-0.021,1.188-0.055c0.176,0.085,0.354,0.188,0.531,0.315
		c0.004,0.006,0.008,0.012,0.011,0.019c-0.251,0.142-0.528,0.353-0.823,0.659c-0.039,0.044-0.541,0.636-0.94,1.479
		C655.778,53.338,654.014,53.45,652.253,53.45z M657.141,54.224c-0.069,0.302-0.111,0.613-0.105,0.929
		c-0.118,0.014-0.231,0.047-0.357,0.076c-0.048,0.01-0.101,0.012-0.149,0.021l-0.014-0.14l-0.172-0.042
		c-0.01-0.019-0.018-0.036-0.025-0.053c-0.001-0.067-0.007-0.177-0.068-0.282c-0.137-0.228-0.329-0.228-0.394-0.228l-0.127,0.006
		c-0.102,0.005-0.211,0.014-0.324,0.025c-0.237,0.023-0.488,0.049-0.703,0.006c-0.061-0.01-0.12-0.039-0.188-0.071
		c-0.021-0.01-0.049-0.02-0.073-0.03C655.34,54.396,656.242,54.324,657.141,54.224z M653.75,54.479
		c-0.018,0.011-0.04,0.02-0.056,0.03c-0.062,0.04-0.093,0.057-0.137,0.061c-0.07,0.007-0.146,0.006-0.215,0.006l-0.165,0.002
		c-0.256,0.01-0.438,0.104-0.607,0.216c-0.003,0-0.005,0-0.008,0c-0.381,0.015-0.853,0.093-1.229,0.029
		c-0.283-0.047-0.479-0.255-0.8-0.146c-0.108,0.035-0.186,0.09-0.273,0.13c-0.001-0.001-0.002-0.002-0.003-0.003
		c-0.081-0.096-0.174-0.205-0.289-0.286c-0.051-0.037-0.097-0.058-0.142-0.078c0.745,0.043,1.557,0.069,2.433,0.069
		c0.402,0,0.82-0.006,1.248-0.017C653.588,54.489,653.67,54.481,653.75,54.479z M647.718,54.262c-0.02,0.005-0.04,0.008-0.059,0.011
		c-0.007-0.007-0.016-0.012-0.023-0.019C647.663,54.256,647.691,54.26,647.718,54.262z M659.201,53.946
		c0.373-0.059,0.745-0.118,1.116-0.186c0.04,0.257,0.068,0.494,0.094,0.705c0.014,0.115,0.026,0.224,0.042,0.33
		c-0.026-0.034-0.054-0.076-0.088-0.134c-0.029-0.05-0.033-0.09-0.04-0.179c-0.004-0.082-0.013-0.183-0.051-0.304l-0.073-0.22
		l-0.227,0.029c-0.125,0.016-0.213,0.091-0.3,0.175c-0.064,0.005-0.125,0.021-0.185,0.049l-0.091,0.07
		c-0.021,0.021-0.04,0.047-0.061,0.073c-0.045,0.027-0.104,0.048-0.151,0.074c0-0.009-0.005-0.019-0.005-0.028
		C659.171,54.249,659.18,54.097,659.201,53.946z M659.684,52.808c0.093-0.128,0.193-0.254,0.311-0.38
		c0.038,0.103,0.071,0.205,0.1,0.304C659.958,52.756,659.822,52.784,659.684,52.808z M643.513,47.721
		c-0.412,0.37-0.792,0.802-1.125,1.311c-0.398,0.608-0.697,1.151-0.934,1.647c-0.382,0.157-0.794,0.335-1.226,0.531
		c-0.896-0.985-1.923-2.115-2.955-3.253C639.294,47.882,641.466,47.8,643.513,47.721z M633.53,46.912
		c-0.124,0.008-0.245,0.015-0.364,0.024c-0.512-0.404-0.946-0.753-1.303-1.047c0.227,0.017,0.427,0.028,0.588,0.033
		c0.438,0.416,0.815,0.72,0.82,0.72L633.53,46.912z M631.396,44.784c-0.202-0.006-0.403-0.009-0.596-0.009
		c-0.064,0-0.128,0-0.19,0.001c-0.232-0.207-0.537-0.465-0.923-0.784c0.171-0.036,0.357-0.06,0.504-0.06
		c0.135,0,0.18,0.02,0.188,0.024c0.147,0.071,0.487,0.193,0.656,0.252C631.116,44.381,631.237,44.573,631.396,44.784z
		 M627.331,41.691c0.438-0.066,0.684-0.202,1.036-0.568c0.206-0.002,0.406-0.002,0.614-0.006c0.194,0.113,0.396,0.289,0.556,0.472
		c0.177,0.201,0.521,0.713,0.867,1.325l-2.377-0.261l-1.055-0.833C627.084,41.762,627.199,41.711,627.331,41.691z M626.5,44.11
		c0.082,0.101,0.721,0.596,2.391,1.877c2.287,1.753,5.741,4.404,6.714,5.359c0.507,0.496,1.091,0.992,1.646,1.434
		c-0.352,0.219-0.698,0.447-1.03,0.687l-0.941,0.023c-0.105,0.003-0.213,0.01-0.32,0.017c-0.396,0.023-0.788,0.023-1.049-0.073
		c-0.167-0.063-0.384-0.225-0.533-0.358c-0.085-0.076-0.171-0.118-0.247-0.157c-0.042-0.021-0.083-0.039-0.123-0.07
		c-0.145-0.111-0.276-0.251-0.417-0.401l-0.145-0.153c-0.174-0.181-0.35-0.273-0.542-0.273c-0.051,0.002-0.202,0.009-0.307,0.146
		c-0.104,0.137-0.092,0.303-0.083,0.426l0.022,0.743c0.002,0.045,0.006,0.094-0.009,0.171c-0.014,0.031-0.031,0.073-0.042,0.134
		l-0.013,0.065c-0.112,0.008-0.227,0.021-0.328,0.023c-0.323,0.007-0.648,0.014-0.974,0.021c-0.325,0.008-0.65,0.016-0.975,0.023
		c-0.541,0.013-1.134,0.098-1.656-0.071c-0.023-0.008-0.048-0.021-0.071-0.03c-0.013-0.338-0.015-0.67,0.02-0.986
		c0.054-0.49,0.031-1.034,0.013-1.512c-0.014-0.338-0.027-0.657-0.012-0.898c0.043-0.604,0.012-2.085,0.01-2.148
		c0,0-0.007-0.274-0.02-0.765c-0.01-0.54-0.088-0.735-0.367-1.176c-0.144-0.219-0.293-0.362-0.432-0.489
		c-0.147-0.139-0.277-0.257-0.381-0.461c-0.098-0.192-0.253-0.426-0.404-0.654c-0.169-0.259-0.381-0.581-0.408-0.705
		c-0.054-0.239-0.445-1.093-0.669-1.535C625.785,43.266,626.493,44.101,626.5,44.11z M622.653,38.032l0.156,0.092
		c0.003,0.002,0.318,0.192,0.443,0.493c0.162,0.392,0.892,0.928,0.974,0.987l0.348,0.252c0.024,0.032,0.047,0.068,0.069,0.102
		c-0.051-0.001-0.103-0.003-0.151-0.003c-0.562-0.381-1.078-0.651-1.809-1.023l-0.106-0.054L622.653,38.032z M620.429,53.775
		c0.472-1.683,1.054-3.752,1.151-5.402c0.286,0.225,0.769,0.591,1.062,0.744c0.057,0.556,0.157,1.401,0.271,1.564
		c0.077,0.114,0.134,0.389,0.092,0.63c-0.012,0.072-0.038,0.148-0.064,0.231c-0.072,0.229-0.164,0.516-0.068,0.839l0.034,0.11
		c0.099,0.321,0.173,0.553,0.094,1.006c-0.084,0.491-0.114,1.459-0.115,2.078c-0.106-0.002-0.214-0.007-0.313-0.005
		c-0.149,0.003-0.296,0.007-0.444,0.01c-0.011-0.027-0.016-0.053-0.037-0.078l-0.108-0.094h-0.103c-0.021,0-0.049,0.002-0.094,0.006
		c-0.09,0.009-0.168,0.068-0.289,0.162l-0.05,0.032c-0.039-0.004-0.076-0.012-0.103-0.029c-0.17-0.108-0.098-0.351-0.29-0.438
		c-0.138-0.062-0.473,0.018-0.627,0.021c-0.126,0.003-0.254,0.005-0.381,0.009C620.156,54.747,620.287,54.279,620.429,53.775z
		 M663.77,113.921l-0.945,7.41c0,0-3.993,2.871-3.791,2.063c0.203-0.805,0.806-1.311-0.504-3.932
		c-1.311-2.622-2.62-0.102-2.62-0.102l-0.125,2.748l-1.893,1.889l-0.101,3.829l-2.702,0.151l-1.562-1.765l-0.474,1.716l-2.922-0.203
		l-0.404-2.521h-1.107l0.101,2.521l-3.931-0.301v-2.621l-1.208,0.1l0.2,2.422l-3.226-0.104l0.101-3.326l-1.008-0.199l-0.204,1.542
		l-1.608-0.232c0,0,0-0.706,0.1-1.21c0.101-0.505-1.914-2.42-1.914-2.42l-0.604,0.707l-1.411-0.707l0.302-1.006
		c0,0-0.728-1.977-1.712-2.521c-0.985-0.541-2.821,0.606-2.821,0.606l-0.304,3.625c0,0-2.722,0-3.729-1.61
		c-1.009-1.613-0.504-5.141-1.311-6.148c-0.603-0.606-1.511-2.621-0.906-4.131c0.604-1.514,1.107-9.07,1.107-9.07
		c0.203-0.909-4.334-16.328,4.233-22.577c7.218-5.921,11.982-8.25,18.081-7.553c3.865,0.442,8.266,2.097,14.17,4.833
		c0.312,0.145,0.603,0.308,0.896,0.468c13.965,7.551,5.983,29.979,5.984,29.981C666.445,113.139,663.77,113.921,663.77,113.921z
		 M711.245,157.475l-0.947,7.411c0,0-3.991,2.869-3.79,2.063c0.203-0.809,0.808-1.312-0.505-3.932
		c-1.309-2.623-2.619-0.101-2.619-0.101l-0.124,2.745l-1.892,1.889l-0.103,3.832l-2.7,0.146l-1.563-1.762l-0.472,1.713l-2.923-0.199
		l-0.403-2.521h-1.108l0.1,2.521l-3.931-0.303v-2.619l-1.208,0.1l0.201,2.42l-3.227-0.102l0.102-3.325l-1.009-0.204l-0.204,1.545
		l-1.609-0.232c0,0,0-0.705,0.102-1.211c0.098-0.504-1.916-2.418-1.916-2.418l-0.604,0.705l-1.41-0.705l0.302-1.008
		c0,0-0.73-1.977-1.714-2.52c-0.984-0.543-2.822,0.604-2.822,0.604l-0.302,3.626c0,0-2.721,0-3.729-1.613
		c-1.01-1.611-0.504-5.139-1.308-6.145c-0.606-0.605-1.512-2.62-0.908-4.131c0.604-1.512,1.108-9.07,1.108-9.07
		c0.202-0.906-4.334-16.326,4.232-22.574c11.792-9.676,17.031-9.775,32.25-2.721c15.219,7.053,6.88,30.446,6.88,30.446
		C713.921,156.693,711.245,157.475,711.245,157.475z M713.83,47.183c-0.516-0.057-1.031-0.018-1.448,0.013
		c-0.065,0.005-0.115,0.006-0.176,0.01c0.086-0.252,0.128-0.477,0.181-0.771c0.033-0.19,0.073-0.413,0.14-0.701
		c0.22-1.008,2.017-4.247,2.605-5.312l0.085-0.154c0.044-0.079,0.122-0.22,0.222-0.406c0.69-0.096,1.436-0.187,1.941-0.187
		c0.159,0,0.282,0.01,0.369,0.028c0.45,0.091,0.558,0.311,0.584,0.402c-0.06,0.156-0.231,0.591-0.558,1.295
		c-0.293,0.637-0.343,0.917-0.292,1.088c-0.054,0.239-0.191,0.831-0.378,1.529c-0.194,0.718-0.229,0.789-0.321,0.976l-0.082,0.176
		c-0.085,0.176-0.824,0.712-1.464,1.101l-0.062,0.037l-0.424,0.734C714.63,47.101,714.288,47.23,713.83,47.183z M758.717,108.279
		l-0.947,7.41c0,0-3.991,2.871-3.79,2.062c0.202-0.804,0.807-1.311-0.506-3.932c-1.309-2.621-2.618-0.1-2.618-0.1l-0.124,2.747
		l-1.893,1.888l-0.1,3.83l-2.703,0.15l-1.563-1.764l-0.472,1.715l-2.922-0.201l-0.403-2.521h-1.107l0.099,2.521l-3.93-0.302v-2.622
		l-1.208,0.102l0.202,2.42l-3.227-0.102l0.101-3.326l-1.009-0.203l-0.204,1.545l-1.605-0.231c0,0,0-0.707,0.098-1.212
		c0.104-0.506-1.914-2.42-1.914-2.42l-0.604,0.707l-1.412-0.707l0.303-1.006c0,0-0.73-1.977-1.715-2.52s-2.821,0.605-2.821,0.605
		l-0.301,3.623c0,0-2.721,0-3.73-1.609c-1.008-1.613-0.503-5.141-1.311-6.146c-0.602-0.605-1.511-2.619-0.907-4.131
		c0.605-1.512,1.109-9.07,1.109-9.07c0.179-0.81-3.407-13.178,1.912-20.271c0.638-0.853,1.398-1.635,2.321-2.306
		c11.79-9.674,17.029-9.773,32.252-2.72c1.243,0.577,2.316,1.273,3.264,2.047c10.628,8.689,3.613,28.4,3.613,28.4
		C761.392,107.498,758.717,108.279,758.717,108.279z"/>
</g>
</svg>
