<?xml version="1.0" encoding="utf-8"?>
<!-- Generator: Adobe Illustrator 16.0.4, SVG Export Plug-In . SVG Version: 6.00 Build 0)  -->
<!DOCTYPE svg PUBLIC "-//W3C//DTD SVG 1.1//EN" "http://www.w3.org/Graphics/SVG/1.1/DTD/svg11.dtd">
<svg version="1.1" id="Layer_1" xmlns="http://www.w3.org/2000/svg" xmlns:xlink="http://www.w3.org/1999/xlink" x="0px" y="0px"
	 width="162.608px" height="162.207px" viewBox="0 0 162.608 162.207" enable-background="new 0 0 162.608 162.207"
	 xml:space="preserve">
<circle cx="81.125" cy="80.33" r="41.008"/>
<g>
	<path d="M22.546,89.54c-0.396-2.561,1.331-4.951,3.891-5.349c2.561-0.396,4.956,1.356,5.353,3.917
		c0.397,2.561-1.359,4.93-3.92,5.326C25.309,93.832,22.943,92.101,22.546,89.54z"/>
	<path d="M35.59,80.46l-18.607-1.939l0.479-4.587c0.41-3.943,2.122-5.615,6.091-5.201c3.969,0.413,5.299,2.401,4.888,6.345
		l-0.145,1.392l7.628,0.795L35.59,80.46z M25.666,76.195l0.129-1.237c0.218-2.088-0.359-2.799-2.576-3.03
		c-2.217-0.23-2.928,0.347-3.146,2.434l-0.129,1.237L25.666,76.195z"/>
	<path d="M37.211,68.657l-17.638-6.213l1.067-3.029l14.999,5.283l1.679-4.764l2.638,0.93L37.211,68.657z"/>
	<path d="M41.522,58.205l-1.651,2.633L25.859,47.982l2.119-3.379l17.673,7.02L44,54.256l-3.813-1.72l-1.872,2.984L41.522,58.205z
		 M36.192,53.639l1.377-2.194l-7.477-3.191l-0.027,0.044L36.192,53.639z"/>
	<path d="M42.312,37.484l-1.005-1.046c-1.095-1.14-2.084-1.123-2.682-0.549c-0.934,0.897-0.767,1.67,0.203,2.679l6.567,6.836
		c0.969,1.008,1.734,1.207,2.668,0.31c0.841-0.808,0.654-1.562-0.189-2.44l-1.561-1.625l2.315-2.225l1.489,1.55
		c1.831,1.905,2.199,4.532-0.116,6.757c-2.429,2.333-5.038,1.859-6.868-0.045l-6.676-6.948c-1.83-1.905-2.199-4.532,0.229-6.864
		c2.316-2.226,5.052-1.621,6.99,0.396l0.951,0.989L42.312,37.484z"/>
	<path d="M55.137,42.923L45.85,26.684l7.467-4.271l1.389,2.429l-4.678,2.676l2.393,4.184l3.599-2.059l1.389,2.43l-3.599,2.058
		l2.728,4.769l4.993-2.855l1.389,2.429L55.137,42.923z"/>
	<path d="M71.896,35.787l-3.071,0.481l0.506-19.01l3.941-0.617l6.3,17.941l-3.07,0.481l-1.205-4.006l-3.479,0.546L71.896,35.787z
		 M71.843,28.769l2.56-0.401l-2.498-7.736l-0.052,0.008L71.843,28.769z"/>
	<path d="M80.509,34.62l1.664-18.63l2.967,0.265l2.944,11.005l0.052,0.005l0.952-10.657l2.89,0.259l-1.664,18.629l-2.786-0.249
		l-3.038-12.001l-0.052-0.004l-1.039,11.637L80.509,34.62z"/>
	<path d="M104.408,25.127c1.219-2.344,3.59-3.534,6.577-1.98c2.987,1.553,3.374,4.177,2.155,6.521l-4.444,8.548
		c-1.219,2.344-3.589,3.534-6.576,1.981c-2.987-1.554-3.375-4.178-2.156-6.521L104.408,25.127z M102.85,35.089
		c-0.646,1.24-0.589,2.029,0.561,2.627c1.149,0.597,1.827,0.19,2.473-1.05l4.373-8.411c0.645-1.241,0.588-2.029-0.562-2.627
		c-1.148-0.598-1.827-0.191-2.473,1.05L102.85,35.089z"/>
	<path d="M110.644,45.563l-2.375-2.162l12.593-13.826l3.332,3.034c2.662,2.425,2.992,4.793,0.307,7.741
		c-2.023,2.222-3.705,2.337-4.841,1.969l-3.692,8.093l-2.413-2.197l3.53-7.261c-0.342-0.241-0.856-0.675-1.278-1.059L110.644,45.563
		z M117.585,37.942l0.843,0.767c1.283,1.169,2.197,1.126,3.697-0.521c1.5-1.647,1.457-2.562,0.174-3.73l-0.842-0.768L117.585,37.942
		z"/>
	<path d="M132.576,41.44l2.586,4.004c1.799,2.785,1.23,5.248-1.989,7.328l-6.224,4.02c-3.22,2.079-5.698,1.584-7.497-1.201
		l-2.586-4.004L132.576,41.44z M120.828,52.852l0.604,0.936c0.927,1.437,1.794,1.585,3.448,0.518l6.876-4.441
		c1.653-1.068,1.874-1.92,0.946-3.355l-0.604-0.936L120.828,52.852z"/>
	<path d="M123.047,61.807l17.716-5.982l2.75,8.146l-2.649,0.896l-1.724-5.104l-4.563,1.541l1.325,3.926l-2.649,0.895l-1.326-3.926
		l-5.201,1.757l1.839,5.446l-2.649,0.896L123.047,61.807z"/>
	<path d="M126.491,75.027l-0.25-3.202l18.641-1.454l0.351,4.492c0.279,3.589-1.101,5.541-5.076,5.851
		c-2.995,0.234-4.299-0.833-4.874-1.879l-8.231,3.369l-0.254-3.253l7.543-2.874c-0.084-0.409-0.162-1.078-0.207-1.646
		L126.491,75.027z M136.767,74.226l0.089,1.136c0.135,1.729,0.83,2.325,3.051,2.151c2.221-0.173,2.815-0.869,2.681-2.599
		l-0.089-1.136L136.767,74.226z"/>
	<path d="M139.818,91.011c-0.464,2.548-2.879,4.241-5.427,3.777s-4.236-2.903-3.772-5.452c0.464-2.548,2.898-4.211,5.447-3.747
		C138.614,86.053,140.282,88.463,139.818,91.011z"/>
</g>
<g>
	<path d="M158.086,83.931l3.369-3.348l-3.348-3.369l3.064-3.629l-3.629-3.063l2.737-3.883l-3.882-2.736l2.389-4.105l-4.105-2.389
		l2.022-4.298l-4.299-2.021l1.641-4.458l-4.458-1.64l1.245-4.583l-4.583-1.246l0.841-4.674l-4.675-0.841l0.432-4.73l-4.73-0.431
		l0.018-4.75l-4.75-0.018l-0.396-4.733l-4.732,0.396l-0.807-4.681l-4.681,0.808l-1.212-4.593l-4.592,1.212l-1.607-4.47l-4.47,1.607
		l-1.989-4.312l-4.312,1.99l-2.359-4.123l-4.122,2.358l-2.708-3.901l-3.902,2.708l-3.037-3.65l-3.82,3.178L81.124,0l-3.357,3.359
		l-3.639-3.054l-3.054,3.638l-3.89-2.724l-2.725,3.89l-4.113-2.375l-2.375,4.112l-4.304-2.008l-2.008,4.304l-4.463-1.626
		l-1.625,4.463l-4.587-1.23l-1.23,4.587l-4.678-0.827l-0.827,4.677l-4.731-0.416l-0.416,4.731l-4.75-0.002l-0.002,4.749
		l-4.732,0.411l0.412,4.731l-4.678,0.822l0.822,4.678l-4.588,1.227l1.226,4.589l-4.464,1.621l1.621,4.463l-4.307,2.005l2.004,4.306
		l-4.116,2.371l2.372,4.115l-3.894,2.721l2.721,3.894L1.106,73.25l3.05,3.642l-3.362,3.355l3.355,3.361l-3.058,3.635L4.727,90.3
		l-2.729,3.889l3.888,2.728l-2.38,4.111l4.11,2.379l-2.014,4.303l4.303,2.012l-1.631,4.462l4.461,1.63l-1.235,4.586l4.586,1.235
		l-0.832,4.677l4.676,0.831l-0.421,4.731l4.731,0.421l-0.008,4.751l4.75,0.006l0.406,4.732l4.732-0.406l0.816,4.679l4.68-0.816
		l1.221,4.59l4.59-1.223l1.616,4.468l4.466-1.618l2,4.31l4.308-1.999l2.367,4.118l4.118-2.367l2.716,3.896l3.896-2.718l3.045,3.646
		l3.645-3.047l3.352,3.366l3.366-3.352l3.632,3.062l3.061-3.633l3.885,2.734l2.732-3.886l4.108,2.385l2.383-4.108l4.301,2.018
		l2.017-4.3l4.46,1.635l1.635-4.46l4.585,1.241l1.239-4.585l4.677,0.837l0.835-4.676l4.732,0.427l0.425-4.731l4.75,0.014
		l0.013-4.751l4.732-0.4l-0.402-4.732l4.681-0.812l-0.812-4.68l4.59-1.216l-1.216-4.591l4.468-1.612l-1.612-4.468l4.312-1.995
		l-1.995-4.31l4.12-2.362l-2.363-4.121l3.9-2.712l-2.713-3.899l3.647-3.041L158.086,83.931z M134.615,129.606v0.009
		c-0.67,0.727-1.354,1.445-2.058,2.148c-0.793,0.793-1.603,1.563-2.425,2.314h-0.013l-0.001,0.013
		c-1.562,1.428-3.18,2.778-4.842,4.053l-0.024-0.002l-0.005,0.024c-1.67,1.28-3.388,2.485-5.15,3.608l-0.048-0.009l-0.013,0.049
		c-1.768,1.122-3.58,2.161-5.43,3.123l-0.057-0.016l-0.02,0.055c-1.853,0.96-3.742,1.842-5.668,2.636l-0.065-0.024l-0.029,0.062
		c-1.927,0.792-3.89,1.497-5.881,2.118l-0.054-0.024l-0.029,0.051c-1.991,0.619-4.012,1.152-6.059,1.598l-0.039-0.022l-0.025,0.036
		c-2.043,0.443-4.11,0.8-6.199,1.066l-0.021-0.015l-0.018,0.021c-2.079,0.264-4.179,0.438-6.295,0.523l-0.006-0.005l-0.006,0.006
		c-1,0.04-2.005,0.065-3.013,0.065c-1.108,0-2.213-0.027-3.314-0.077l-0.008-0.007l-0.008,0.007
		c-2.115-0.095-4.213-0.281-6.291-0.554l-0.017-0.02l-0.02,0.015c-2.088-0.275-4.153-0.637-6.194-1.088l-0.027-0.039l-0.042,0.023
		c-2.044-0.453-4.062-0.999-6.05-1.626l-0.029-0.051l-0.052,0.024c-1.989-0.63-3.949-1.341-5.873-2.141l-0.029-0.063l-0.064,0.023
		c-1.922-0.802-3.809-1.69-5.657-2.658l-0.02-0.056l-0.058,0.016c-1.846-0.97-3.653-2.02-5.416-3.151l-0.012-0.044l-0.044,0.008
		c-1.758-1.13-3.473-2.34-5.139-3.627l-0.004-0.026l-0.027,0.002c-1.657-1.282-3.266-2.642-4.823-4.076l-0.001-0.009h-0.009
		c-0.746-0.688-1.483-1.388-2.204-2.109c-0.775-0.774-1.528-1.566-2.263-2.37v-0.012l-0.012-0.001
		c-1.429-1.562-2.781-3.176-4.058-4.837l0.002-0.025l-0.025-0.004c-1.282-1.67-2.488-3.386-3.613-5.147l0.008-0.047l-0.047-0.014
		c-1.125-1.766-2.167-3.576-3.13-5.425l0.015-0.058l-0.055-0.021c-0.962-1.851-1.846-3.737-2.641-5.662l0.024-0.067l-0.063-0.029
		c-0.793-1.926-1.499-3.887-2.123-5.877l0.025-0.055l-0.052-0.029c-0.621-1.99-1.157-4.011-1.605-6.057l0.023-0.041l-0.037-0.025
		c-0.445-2.042-0.803-4.109-1.072-6.198l0.015-0.021l-0.021-0.017c-0.266-2.079-0.443-4.178-0.532-6.292l0.006-0.008l-0.007-0.007
		c-0.042-1.026-0.068-2.055-0.068-3.088c0-1.084,0.027-2.163,0.074-3.238l0.008-0.008l-0.008-0.009
		c0.093-2.114,0.276-4.213,0.547-6.29l0.02-0.017l-0.015-0.021c0.273-2.087,0.633-4.153,1.082-6.194l0.04-0.027l-0.025-0.043
		c0.452-2.045,0.994-4.062,1.619-6.051l0.052-0.029l-0.025-0.055c0.627-1.988,1.335-3.948,2.132-5.871l0.067-0.031l-0.024-0.066
		c0.8-1.923,1.687-3.809,2.652-5.657l0.057-0.021l-0.016-0.059c0.967-1.846,2.014-3.654,3.143-5.418l0.047-0.012l-0.008-0.047
		c1.128-1.758,2.336-3.474,3.621-5.14l0.027-0.005l-0.002-0.027c1.28-1.658,2.637-3.269,4.069-4.826l0.012-0.001v-0.012
		c0.703-0.765,1.42-1.52,2.16-2.259c0.757-0.757,1.53-1.492,2.313-2.211h0.012l0.001-0.013c1.56-1.43,3.171-2.784,4.831-4.062
		l0.027,0.002l0.005-0.027c1.668-1.282,3.383-2.489,5.142-3.616l0.048,0.009l0.013-0.048c1.764-1.127,3.573-2.172,5.42-3.137
		l0.059,0.016l0.021-0.057c1.849-0.963,3.735-1.849,5.658-2.646l0.069,0.024l0.03-0.065c1.924-0.795,3.885-1.501,5.874-2.127
		l0.054,0.025l0.03-0.052c1.99-0.623,4.008-1.162,6.054-1.612l0.042,0.024l0.027-0.039c2.042-0.447,4.108-0.806,6.195-1.076
		l0.021,0.015l0.017-0.021c2.078-0.269,4.177-0.449,6.291-0.539l0.009,0.008l0.008-0.009c1.051-0.044,2.104-0.071,3.162-0.071
		c1.059,0,2.112,0.027,3.163,0.071l0.152,0.153l0.17-0.141c2.114,0.099,4.211,0.291,6.287,0.568l0.017,0.02l0.021-0.015
		c2.085,0.279,4.15,0.644,6.189,1.099l0.029,0.043l0.046-0.026c2.041,0.458,4.057,1.009,6.042,1.64l0.03,0.052l0.053-0.025
		c1.988,0.634,3.945,1.352,5.867,2.155l0.029,0.062l0.062-0.023c1.922,0.807,3.807,1.697,5.652,2.668l0.021,0.058l0.06-0.016
		c1.844,0.974,3.647,2.029,5.408,3.164l0.012,0.042l0.042-0.008c1.756,1.135,3.47,2.346,5.133,3.638l0.005,0.027l0.028-0.003
		c1.654,1.286,3.259,2.65,4.813,4.088v0.009h0.008c0.708,0.654,1.408,1.319,2.093,2.005c0.812,0.811,1.599,1.64,2.366,2.48v0.014
		l0.014,0.001c1.426,1.564,2.773,3.183,4.047,4.847l-0.002,0.024l0.023,0.005c1.279,1.672,2.483,3.389,3.604,5.152l-0.009,0.05
		l0.05,0.014c1.121,1.768,2.158,3.581,3.117,5.432l-0.016,0.057l0.055,0.021c0.959,1.854,1.837,3.744,2.629,5.67l-0.024,0.064
		l0.062,0.029c0.789,1.928,1.492,3.891,2.112,5.883l-0.025,0.054l0.052,0.03c0.617,1.992,1.148,4.015,1.592,6.062l-0.022,0.038
		l0.036,0.025c0.44,2.044,0.796,4.111,1.06,6.2l-0.015,0.022l0.021,0.019c0.263,2.078,0.433,4.179,0.517,6.294l-0.006,0.006
		l0.006,0.006c0.039,0.976,0.063,1.954,0.063,2.936c0,1.134-0.028,2.264-0.079,3.39l-0.01,0.01l0.009,0.01
		c-0.097,2.114-0.286,4.212-0.562,6.288l-0.02,0.017l0.014,0.021c-0.276,2.086-0.639,4.152-1.092,6.192l-0.041,0.028l0.025,0.044
		c-0.457,2.043-1.005,4.058-1.635,6.046l-0.051,0.028l0.025,0.055c-0.633,1.987-1.347,3.946-2.147,5.868l-0.063,0.029l0.023,0.064
		c-0.805,1.921-1.693,3.807-2.664,5.654l-0.055,0.021l0.015,0.058c-0.972,1.845-2.024,3.65-3.157,5.412l-0.043,0.012l0.007,0.044
		c-1.132,1.757-2.343,3.471-3.632,5.136l-0.026,0.005l0.002,0.026c-1.284,1.656-2.646,3.263-4.082,4.819H134.615z"/>
	<path d="M131.215,30.239C117.835,16.86,100.046,9.492,81.124,9.492c-18.921,0-36.71,7.368-50.09,20.747
		C17.654,43.62,10.286,61.408,10.286,80.33s7.369,36.711,20.749,50.09c13.379,13.38,31.168,20.748,50.09,20.748
		c18.923,0,36.712-7.368,50.091-20.748c13.379-13.379,20.748-31.168,20.748-50.09S144.594,43.619,131.215,30.239z M129.865,129.071
		c-13.019,13.019-30.328,20.188-48.741,20.188c-18.412,0-35.722-7.17-48.741-20.188c-13.019-13.02-20.189-30.329-20.189-48.741
		s7.17-35.721,20.189-48.74C45.403,18.57,62.712,11.4,81.124,11.4c18.412,0,35.722,7.17,48.741,20.189
		c13.02,13.019,20.189,30.328,20.189,48.74S142.885,116.052,129.865,129.071z"/>
</g>
<path d="M81.125,80.33"/>
<path fill="#FFC709" d="M109.606,61.661c-3.445-2.872-21.591-7.696-21.591-7.696c-1.607,2.757-6.891,3.217-6.891,3.217h-0.001
	c-0.005-0.001-5.283-0.461-6.891-3.217c0,0-18.145,4.824-21.59,7.696l3.904,11.943h7.81l-0.689,33.78h34.914l-0.689-33.78h7.809
	L109.606,61.661z"/>
<g>
	<path d="M29.588,110.319l7.348-4.473l1.103,1.812c0.948,1.558,0.787,2.646-0.78,3.6s-2.607,0.597-3.556-0.96l-0.334-0.55
		l-3.013,1.834L29.588,110.319z M34.407,109.116l0.297,0.488c0.502,0.824,0.911,0.924,1.787,0.392
		c0.875-0.533,0.975-0.942,0.473-1.767l-0.297-0.489L34.407,109.116z"/>
	<path d="M35.09,118.457l-0.937-1.143l6.654-5.453l1.314,1.604c1.05,1.281,1.042,2.381-0.377,3.544
		c-1.069,0.877-1.842,0.816-2.334,0.573l-2.22,3.438l-0.952-1.161l2.091-3.069c-0.139-0.133-0.345-0.364-0.511-0.567L35.09,118.457z
		 M38.759,115.451l0.332,0.405c0.506,0.618,0.925,0.659,1.718,0.01c0.793-0.649,0.834-1.068,0.328-1.687l-0.332-0.405
		L38.759,115.451z"/>
	<path d="M39.758,123.646l5.971-6.191l1.063,1.025l-5.971,6.191L39.758,123.646z"/>
	<path d="M43.753,127.301l5.211-6.852l1.092,0.829l-1.548,5.01l0.019,0.015l2.981-3.92l1.063,0.809l-5.211,6.853l-1.025-0.779
		l1.755-5.421l-0.019-0.015l-3.255,4.28L43.753,127.301z"/>
	<path d="M54.905,126.175l-1.24-0.712l0.641-1.115l3.76,2.16l-0.641,1.115l-1.24-0.712l-3.645,6.343l-1.281-0.736L54.905,126.175z"
		/>
	<path d="M107.459,134.655l-4.021-7.602l1.306-0.69l3.419,6.464l2.054-1.086l0.602,1.138L107.459,134.655z"/>
	<path d="M109.811,125.872c-0.701-0.991-0.689-2.211,0.574-3.105c1.264-0.896,2.418-0.501,3.119,0.49l2.561,3.616
		c0.701,0.991,0.689,2.211-0.574,3.105s-2.418,0.501-3.119-0.491L109.811,125.872z M113.555,128.605
		c0.372,0.524,0.707,0.667,1.192,0.323c0.486-0.344,0.463-0.707,0.091-1.231l-2.519-3.558c-0.372-0.525-0.706-0.668-1.192-0.323
		c-0.485,0.344-0.462,0.706-0.09,1.231L113.555,128.605z"/>
	<path d="M118.473,119.928l-0.459-0.485c-0.498-0.528-0.954-0.525-1.231-0.264c-0.433,0.409-0.359,0.766,0.083,1.233l2.993,3.172
		c0.441,0.469,0.793,0.562,1.226,0.154c0.391-0.368,0.308-0.717-0.076-1.124l-0.712-0.754l1.075-1.015l0.678,0.72
		c0.835,0.884,0.994,2.095-0.081,3.108c-1.127,1.063-2.325,0.835-3.159-0.05l-3.043-3.224c-0.834-0.884-0.993-2.094,0.134-3.157
		c1.074-1.015,2.331-0.726,3.214,0.211l0.434,0.459L118.473,119.928z"/>
	<path d="M126.641,119.557l-0.898,1.111l-5.691-6.641l1.154-1.427l7.684,4.178l-0.898,1.111l-1.646-0.995l-1.02,1.26
		L126.641,119.557z M124.459,117.179l0.749-0.927l-3.238-1.868l-0.015,0.019L124.459,117.179z"/>
	<path d="M130.65,114.208l-7.304-4.551l0.781-1.254l6.212,3.869l1.229-1.973l1.093,0.681L130.65,114.208z"/>
</g>
<g>
	<path d="M87.42,124.854H74.834l0.691,3.438h-3.479l3.578,16.534h11.219l3.359-16.534h-3.424L87.42,124.854z"/>
	<polygon fill="#FFFFFF" points="77.33,137.636 78.096,141.977 77.521,141.977 75.454,131.257 76.152,131.257 76.848,134.854 
		77.619,134.854 76.863,130.178 74.285,130.178 76.947,143.012 79.012,143.012 78.087,137.636 	"/>
	<path fill="#FFFFFF" d="M83.358,143.012h0.735l0.962-5.335h1.476l1.556-7.499h-2.579L83.358,143.012z M86.917,131.257l-0.97,5.027
		h-0.64l0.911-5.027H86.917z"/>
	<polygon fill="#FFFFFF" points="84.248,126.659 82.51,137.057 81.675,126.659 80.555,126.659 79.758,137.057 78.02,126.659 
		77.03,126.659 79.688,143.019 80.352,143.019 81.134,132.412 81.915,143.019 82.58,143.019 85.237,126.659 	"/>
</g>
</svg>
