<?xml version="1.0" encoding="utf-8"?>
<!-- Generated by IcoMoon.io -->
<!DOCTYPE svg PUBLIC "-//W3C//DTD SVG 1.1//EN" "http://www.w3.org/Graphics/SVG/1.1/DTD/svg11.dtd">

<svg version="1.1" xmlns="http://www.w3.org/2000/svg" xmlns:xlink="http://www.w3.org/1999/xlink" width="272" height="32" viewBox="0 0 272 32">
<defs>
<g id="icon-koozie">
	<path class="path1" d="M10.522 11.878h-0.074c-0.061 0-0.114 0.022-0.156 0.064s-0.065 0.096-0.065 0.157v4.162c0 0.062 0.022 0.115 0.065 0.157s0.095 0.065 0.156 0.065h0.074c0.061 0 0.114-0.022 0.157-0.065s0.064-0.095 0.064-0.157v-4.162c0-0.061-0.022-0.113-0.064-0.157s-0.096-0.064-0.157-0.064z" opacity="1" visibility="false"></path>
	<path class="path2" d="M13.837 11.878h-0.074c-0.061 0-0.114 0.022-0.156 0.064s-0.065 0.096-0.065 0.157v4.162c0 0.062 0.022 0.115 0.065 0.157s0.095 0.065 0.156 0.065h0.074c0.061 0 0.114-0.022 0.157-0.065s0.064-0.095 0.064-0.157v-4.162c0-0.061-0.022-0.113-0.064-0.157s-0.095-0.064-0.157-0.064z" opacity="1" visibility="false"></path>
	<path class="path3" d="M28.337 0.648h-24.287v24.288h6.373c-2.061 1.677-3.378 4.233-3.378 7.097h18.296c0-2.864-1.317-5.42-3.377-7.097h6.373l-0.001-24.288zM8.809 11.086l-1.234 2.717 1.216 3.472c0.012 0.030 0.009 0.060-0.009 0.088s-0.046 0.042-0.083 0.042h-0.912c-0.037 0-0.070-0.010-0.101-0.033-0.031-0.021-0.052-0.047-0.064-0.077l-0.672-2.082-0.157 0.387v1.676c0 0.086-0.042 0.129-0.129 0.129h-0.819c-0.086 0-0.129-0.043-0.129-0.129v-6.189c0-0.086 0.042-0.129 0.129-0.129h0.819c0.086 0 0.129 0.043 0.129 0.129v1.98l0.848-1.998c0.031-0.074 0.089-0.111 0.175-0.111h0.92c0.037 0 0.061 0.014 0.074 0.042s0.012 0.058-0 0.088zM11.82 16.307c0 0.16-0.031 0.31-0.092 0.452s-0.144 0.264-0.249 0.368c-0.104 0.105-0.227 0.188-0.368 0.248s-0.292 0.092-0.452 0.092h-0.35c-0.16 0-0.31-0.031-0.451-0.092s-0.264-0.143-0.368-0.248c-0.104-0.104-0.188-0.226-0.249-0.368s-0.092-0.292-0.092-0.452v-4.254c0-0.16 0.031-0.31 0.092-0.451s0.144-0.264 0.249-0.368c0.104-0.104 0.227-0.187 0.368-0.249s0.292-0.092 0.451-0.092h0.35c0.16 0 0.31 0.031 0.452 0.092s0.264 0.144 0.368 0.249 0.188 0.227 0.249 0.368c0.061 0.142 0.092 0.292 0.092 0.451v4.254zM15.135 16.307c0 0.16-0.031 0.31-0.092 0.452s-0.144 0.264-0.249 0.368c-0.104 0.105-0.227 0.188-0.368 0.248s-0.292 0.092-0.451 0.092h-0.35c-0.16 0-0.31-0.031-0.451-0.092s-0.264-0.143-0.368-0.248c-0.104-0.104-0.187-0.226-0.248-0.368s-0.092-0.292-0.092-0.452v-4.254c0-0.16 0.031-0.31 0.092-0.451s0.144-0.264 0.248-0.368c0.104-0.104 0.227-0.187 0.368-0.249s0.292-0.092 0.451-0.092h0.35c0.16 0 0.31 0.031 0.451 0.092s0.264 0.144 0.368 0.249 0.187 0.227 0.249 0.368c0.061 0.142 0.092 0.292 0.092 0.451v4.254zM18.432 17.274c0 0.086-0.043 0.129-0.13 0.129h-2.44c-0.037 0-0.066-0.012-0.088-0.037s-0.026-0.056-0.014-0.092l1.28-5.286h-1.178c-0.086 0-0.129-0.043-0.129-0.129v-0.774c0-0.086 0.043-0.129 0.129-0.129h2.422c0.037 0 0.066 0.014 0.088 0.042 0.020 0.028 0.025 0.057 0.013 0.087l-1.28 5.286h1.197c0.086 0 0.13 0.043 0.13 0.129v0.773zM20.2 17.274c0 0.086-0.043 0.129-0.129 0.129h-0.82c-0.086 0-0.128-0.043-0.128-0.129v-6.189c0-0.086 0.042-0.129 0.128-0.129h0.82c0.086 0 0.129 0.043 0.129 0.129v6.189zM23.284 11.906c0 0.086-0.042 0.129-0.128 0.129h-1.050v1.326h0.912c0.086 0 0.128 0.043 0.128 0.129v0.82c0 0.086-0.042 0.129-0.128 0.129h-0.912v1.888h1.050c0.086 0 0.128 0.042 0.128 0.129v0.82c0 0.086-0.042 0.129-0.128 0.129h-1.998c-0.086 0-0.129-0.043-0.129-0.129v-6.189c0-0.086 0.043-0.129 0.129-0.129h1.998c0.086 0 0.128 0.043 0.128 0.129v0.82zM26.508 12.403c0 0.086-0.041 0.141-0.12 0.166l-0.839 0.221c-0.080 0.025-0.12-0.006-0.12-0.092v-0.599c0-0.061-0.022-0.113-0.064-0.157s-0.095-0.064-0.157-0.064h-0.074c-0.061 0-0.113 0.022-0.156 0.064s-0.064 0.096-0.064 0.157v0.838c0.006 0.068 0.019 0.126 0.037 0.175s0.053 0.098 0.102 0.147l1.207 0.903c0.098 0.086 0.16 0.174 0.189 0.262s0.047 0.189 0.060 0.3v1.584c0 0.16-0.030 0.31-0.092 0.451s-0.144 0.264-0.249 0.369c-0.105 0.105-0.227 0.187-0.368 0.248s-0.292 0.092-0.452 0.092h-0.35c-0.159 0-0.309-0.031-0.452-0.092s-0.264-0.144-0.368-0.248c-0.105-0.105-0.188-0.227-0.248-0.369s-0.092-0.291-0.092-0.451v-0.884c0-0.086 0.040-0.141 0.119-0.166l0.838-0.221c0.080-0.024 0.12 0.006 0.12 0.092v1.133c0 0.061 0.022 0.114 0.065 0.157s0.094 0.065 0.156 0.065h0.074c0.061 0 0.114-0.022 0.157-0.065s0.064-0.095 0.064-0.157v-1.216c-0.006-0.080-0.018-0.15-0.038-0.212-0.018-0.061-0.055-0.116-0.11-0.166l-1.188-0.911c-0.092-0.086-0.158-0.172-0.199-0.258s-0.058-0.2-0.058-0.341v-1.105c0-0.16 0.030-0.31 0.092-0.451s0.144-0.264 0.248-0.368c0.104-0.104 0.226-0.187 0.368-0.249s0.292-0.092 0.452-0.092h0.35c0.159 0 0.31 0.031 0.452 0.092s0.264 0.144 0.368 0.249c0.104 0.104 0.187 0.227 0.249 0.368s0.092 0.292 0.092 0.451v0.351h-0z" opacity="1" visibility="false"></path>
</g>
<g id="icon-posters">
	<path class="path1" d="M21.373 14.050h-0.258v1.612h0.258c0.054 0 0.099-0.018 0.136-0.056 0.038-0.038 0.057-0.083 0.057-0.136v-1.228c0-0.053-0.019-0.099-0.057-0.136-0.037-0.037-0.083-0.056-0.136-0.056z" opacity="1" visibility="false"></path>
	<path class="path2" d="M7.607 14.050h-0.256v1.612h0.256c0.054 0 0.099-0.018 0.136-0.056s0.056-0.083 0.056-0.136v-1.228c0-0.053-0.018-0.099-0.056-0.136s-0.083-0.056-0.136-0.056z" opacity="1" visibility="false"></path>
	<path class="path3" d="M10.374 13.994h-0.064c-0.054 0-0.099 0.019-0.136 0.056s-0.056 0.083-0.056 0.136v3.626c0 0.054 0.019 0.099 0.056 0.136s0.083 0.056 0.136 0.056h0.064c0.054 0 0.099-0.019 0.136-0.056s0.056-0.082 0.056-0.136v-3.626c0-0.054-0.019-0.099-0.056-0.136s-0.083-0.056-0.136-0.056z" opacity="1" visibility="false"></path>
	<path class="path4" d="M3.66 0v32h24.491v-32h-24.491zM8.738 15.51c0 0.139-0.027 0.27-0.080 0.393s-0.126 0.23-0.217 0.321c-0.091 0.091-0.198 0.163-0.321 0.217s-0.254 0.080-0.393 0.080h-0.377v2.175c0 0.075-0.038 0.112-0.112 0.112h-0.714c-0.074 0-0.112-0.038-0.112-0.112v-5.392c0-0.075 0.038-0.112 0.112-0.112h1.204c0.139 0 0.27 0.026 0.393 0.080s0.23 0.126 0.321 0.217 0.163 0.198 0.217 0.321c0.053 0.123 0.080 0.254 0.080 0.393l-0 1.307zM11.506 17.853c0 0.139-0.027 0.27-0.080 0.392s-0.126 0.23-0.216 0.321c-0.091 0.091-0.198 0.163-0.321 0.216s-0.254 0.081-0.393 0.081h-0.305c-0.139 0-0.27-0.027-0.393-0.081s-0.23-0.125-0.321-0.216c-0.091-0.091-0.163-0.198-0.217-0.321s-0.080-0.254-0.080-0.392v-3.706c0-0.139 0.026-0.27 0.080-0.393s0.126-0.23 0.217-0.321c0.091-0.090 0.198-0.162 0.321-0.216s0.254-0.080 0.393-0.080h0.305c0.139 0 0.27 0.027 0.393 0.080s0.23 0.126 0.321 0.216c0.091 0.091 0.163 0.198 0.216 0.321s0.080 0.254 0.080 0.393v3.706zM14.354 14.452c0 0.075-0.035 0.124-0.104 0.144l-0.73 0.192c-0.069 0.022-0.104-0.005-0.104-0.080v-0.521c0-0.054-0.019-0.099-0.056-0.136s-0.083-0.056-0.136-0.056h-0.064c-0.054 0-0.099 0.019-0.136 0.056s-0.056 0.083-0.056 0.136v0.73c0.006 0.059 0.016 0.11 0.032 0.153s0.045 0.086 0.088 0.128l1.051 0.786c0.085 0.075 0.14 0.151 0.164 0.229s0.042 0.164 0.052 0.26v1.38c0 0.139-0.027 0.27-0.080 0.392s-0.126 0.23-0.217 0.321c-0.091 0.091-0.198 0.163-0.321 0.216s-0.254 0.081-0.393 0.081h-0.305c-0.139 0-0.27-0.027-0.393-0.081s-0.23-0.125-0.321-0.216c-0.091-0.091-0.163-0.198-0.217-0.321s-0.080-0.254-0.080-0.392v-0.771c0-0.075 0.035-0.123 0.105-0.144l0.73-0.192c0.069-0.021 0.104 0.006 0.104 0.080v0.987c0 0.054 0.019 0.098 0.056 0.136s0.083 0.057 0.136 0.057h0.064c0.053 0 0.099-0.020 0.136-0.057s0.056-0.082 0.056-0.136v-1.059c-0.006-0.069-0.016-0.131-0.032-0.184s-0.048-0.102-0.096-0.144l-1.034-0.794c-0.080-0.075-0.138-0.15-0.173-0.225s-0.052-0.174-0.052-0.297v-0.962c0-0.139 0.027-0.27 0.080-0.393s0.126-0.23 0.217-0.321c0.090-0.090 0.198-0.162 0.321-0.216s0.254-0.080 0.393-0.080h0.305c0.139 0 0.27 0.027 0.393 0.080s0.23 0.126 0.321 0.216c0.091 0.091 0.163 0.198 0.217 0.321s0.080 0.254 0.080 0.393v0.304zM16.968 14.018c0 0.075-0.038 0.113-0.111 0.113h-0.57v4.564c0 0.075-0.037 0.112-0.112 0.112h-0.714c-0.027 0-0.052-0.011-0.076-0.032s-0.036-0.048-0.036-0.080v-4.564h-0.562c-0.075 0-0.112-0.038-0.112-0.113v-0.714c0-0.075 0.037-0.112 0.112-0.112h2.070c0.074 0 0.111 0.037 0.111 0.112v0.714zM19.495 14.018c0 0.075-0.038 0.113-0.112 0.113h-0.914v1.155h0.794c0.075 0 0.112 0.037 0.112 0.112v0.714c0 0.075-0.038 0.112-0.112 0.112h-0.794v1.644h0.914c0.075 0 0.112 0.038 0.112 0.112v0.714c0 0.075-0.038 0.112-0.112 0.112h-1.741c-0.075 0-0.112-0.038-0.112-0.112v-5.391c0-0.075 0.038-0.112 0.112-0.112h1.741c0.075 0 0.112 0.037 0.112 0.112v0.714zM22.584 18.808h-0.73c-0.032 0-0.062-0.011-0.092-0.032s-0.049-0.048-0.060-0.080l-0.586-1.966v2.078l-0.008-0.080c-0.010 0.053-0.045 0.080-0.104 0.080h-0.714c-0.075 0-0.112-0.038-0.112-0.112v-5.392c0-0.075 0.038-0.112 0.112-0.112h1.203c0.139 0 0.271 0.026 0.393 0.080 0.124 0.054 0.23 0.126 0.321 0.217s0.162 0.198 0.216 0.321c0.053 0.123 0.080 0.254 0.080 0.393v1.307c0 0.198-0.051 0.376-0.152 0.534-0.102 0.158-0.236 0.28-0.401 0.365l0.713 2.287c0.017 0.074-0.010 0.112-0.080 0.112zM25.4 14.452c0 0.075-0.035 0.124-0.105 0.144l-0.73 0.192c-0.069 0.022-0.104-0.005-0.104-0.080v-0.521c0-0.054-0.019-0.099-0.056-0.136s-0.084-0.056-0.137-0.056h-0.064c-0.053 0-0.099 0.019-0.136 0.056s-0.057 0.083-0.057 0.136v0.73c0.006 0.059 0.016 0.11 0.033 0.153 0.016 0.043 0.044 0.086 0.088 0.128l1.050 0.786c0.086 0.075 0.142 0.151 0.165 0.229s0.042 0.164 0.052 0.26v1.38c0 0.139-0.026 0.27-0.080 0.392s-0.125 0.23-0.217 0.321c-0.090 0.091-0.197 0.163-0.32 0.216s-0.254 0.081-0.392 0.081h-0.306c-0.139 0-0.27-0.027-0.392-0.081s-0.23-0.125-0.321-0.216c-0.092-0.091-0.163-0.198-0.217-0.321-0.053-0.123-0.080-0.254-0.080-0.392v-0.771c0-0.075 0.035-0.123 0.105-0.144l0.73-0.192c0.069-0.021 0.104 0.006 0.104 0.080v0.987c0 0.054 0.019 0.098 0.056 0.136s0.083 0.057 0.137 0.057h0.064c0.054 0 0.099-0.020 0.136-0.057s0.056-0.082 0.056-0.136v-1.059c-0.006-0.069-0.015-0.131-0.032-0.184-0.016-0.054-0.048-0.102-0.096-0.144l-1.035-0.794c-0.081-0.075-0.138-0.15-0.174-0.225s-0.052-0.174-0.052-0.297v-0.962c0-0.139 0.026-0.27 0.080-0.393s0.126-0.23 0.217-0.321c0.091-0.090 0.197-0.162 0.32-0.216s0.255-0.080 0.393-0.080h0.306c0.139 0 0.27 0.027 0.393 0.080s0.23 0.126 0.32 0.216c0.092 0.091 0.163 0.198 0.217 0.321s0.080 0.254 0.080 0.393v0.304z" opacity="1" visibility="false"></path>
</g>
<g id="icon-questions">
	<path class="path1" d="M11.566 14.164l0.358-0.404c5.199-0.448 7.037-1.658 7.037-3.586v-0.045c0-1.524-1.21-2.466-3.362-2.466-2.107 0-4.437 1.076-6.544 2.958l-4.482-5.916c2.734-2.734 6.454-4.706 11.608-4.706 6.589 0 11.206 3.586 11.206 9.413v0.090c0 5.648-3.765 8.068-8.74 9.278l-0.538 2.869h-5.423l-1.121-7.486zM10.849 24.249h8.83v7.62h-8.83v-7.62z" opacity="1" visibility="false"></path>
</g>
<g id="icon-shirt">
	<path class="path1" d="M20.782 2.446c-0.663 1.409-2.618 2.431-4.928 2.431-2.274 0-4.2-0.991-4.892-2.366l-10.889 3.036 2.201 6.757h4.462v17.84h18.503v-17.84h4.462l2.202-6.757-11.122-3.101z" opacity="1" visibility="false"></path>
</g>
<g id="icon-stickers">
	<path class="path1" d="M21.526 13.692h-0.262v1.646h0.262c0.055 0 0.101-0.020 0.14-0.058s0.058-0.084 0.058-0.139v-1.252c0-0.055-0.020-0.102-0.058-0.14s-0.085-0.057-0.14-0.057z" opacity="1" visibility="false"></path>
	<path class="path2" d="M0 9.189v13.411h27.062l4.938-4.938v-8.473h-32zM6.545 14.101c0 0.076-0.036 0.126-0.106 0.147l-0.745 0.196c-0.071 0.022-0.106-0.005-0.106-0.081v-0.533c0-0.055-0.019-0.101-0.057-0.139s-0.085-0.058-0.139-0.058h-0.066c-0.055 0-0.101 0.019-0.139 0.058s-0.058 0.084-0.058 0.139v0.745c0.005 0.060 0.016 0.112 0.033 0.156s0.046 0.088 0.090 0.131l1.072 0.802c0.087 0.076 0.143 0.154 0.168 0.233s0.042 0.168 0.053 0.266v1.408c0 0.142-0.028 0.275-0.082 0.401s-0.128 0.235-0.221 0.326c-0.093 0.092-0.202 0.167-0.328 0.222s-0.259 0.081-0.401 0.081h-0.311c-0.142 0-0.276-0.026-0.401-0.081s-0.235-0.128-0.328-0.222c-0.093-0.092-0.167-0.202-0.221-0.326s-0.082-0.258-0.082-0.401v-0.787c0-0.076 0.036-0.125 0.106-0.147l0.745-0.197c0.071-0.023 0.106 0.006 0.106 0.082v1.008c0 0.054 0.019 0.1 0.058 0.139 0.038 0.038 0.084 0.057 0.139 0.057h0.066c0.054 0 0.101-0.020 0.139-0.057 0.038-0.039 0.057-0.085 0.057-0.139v-1.081c-0.006-0.071-0.016-0.134-0.033-0.188s-0.049-0.104-0.098-0.148l-1.056-0.81c-0.082-0.076-0.141-0.153-0.176-0.23s-0.053-0.177-0.053-0.303v-0.982c0-0.142 0.027-0.276 0.082-0.402s0.128-0.234 0.221-0.327c0.092-0.092 0.202-0.166 0.328-0.221s0.259-0.082 0.401-0.082h0.311c0.142 0 0.276 0.028 0.401 0.082s0.235 0.128 0.328 0.221 0.166 0.202 0.221 0.327c0.054 0.126 0.082 0.259 0.082 0.402v0.311zM9.214 13.658c0 0.076-0.038 0.115-0.114 0.115h-0.582v4.659c0 0.076-0.038 0.115-0.114 0.115h-0.729c-0.027 0-0.053-0.011-0.078-0.033s-0.037-0.049-0.037-0.082v-4.658h-0.573c-0.076 0-0.115-0.038-0.115-0.115v-0.728c0-0.076 0.038-0.114 0.115-0.114h2.112c0.076 0 0.114 0.038 0.114 0.114v0.728zM10.745 18.432c0 0.076-0.038 0.115-0.115 0.115h-0.729c-0.076 0-0.115-0.038-0.115-0.115v-5.502c0-0.076 0.038-0.114 0.115-0.114h0.729c0.076 0 0.115 0.038 0.115 0.114v5.502zM13.774 14.444c0 0.076-0.036 0.126-0.106 0.148l-0.745 0.115c-0.071 0.022-0.106-0.006-0.106-0.082v-0.794c0-0.055-0.019-0.101-0.058-0.139s-0.084-0.058-0.139-0.058h-0.066c-0.055 0-0.101 0.019-0.139 0.058s-0.057 0.084-0.057 0.139v3.702c0 0.054 0.019 0.1 0.057 0.139 0.038 0.038 0.084 0.057 0.139 0.057h0.066c0.055 0 0.101-0.020 0.139-0.057 0.038-0.039 0.058-0.085 0.058-0.139v-1.147c0-0.076 0.035-0.104 0.106-0.082l0.745 0.098c0.071 0.022 0.106 0.071 0.106 0.148v1.024c0 0.142-0.027 0.275-0.082 0.401s-0.128 0.235-0.221 0.327c-0.093 0.093-0.202 0.167-0.327 0.221s-0.259 0.082-0.401 0.082h-0.311c-0.142 0-0.276-0.027-0.401-0.082s-0.234-0.128-0.328-0.221c-0.093-0.092-0.166-0.202-0.221-0.327s-0.082-0.258-0.082-0.401v-3.783c0-0.142 0.027-0.276 0.082-0.402s0.128-0.234 0.221-0.327c0.093-0.092 0.202-0.166 0.328-0.221s0.259-0.082 0.401-0.082h0.311c0.142 0 0.276 0.028 0.401 0.082s0.234 0.128 0.327 0.221 0.166 0.202 0.221 0.327c0.055 0.126 0.082 0.259 0.082 0.402v0.654zM17.041 18.432c0.010 0.027 0.008 0.053-0.008 0.078s-0.041 0.037-0.075 0.037h-0.81c-0.033 0-0.063-0.009-0.090-0.029s-0.046-0.042-0.057-0.070l-0.598-1.851-0.139 0.344v1.49c0 0.076-0.038 0.115-0.115 0.115h-0.729c-0.076 0-0.115-0.038-0.115-0.115v-5.502c0-0.076 0.038-0.114 0.115-0.114h0.729c0.076 0 0.115 0.038 0.115 0.114v1.76l0.753-1.776c0.027-0.066 0.079-0.098 0.156-0.098h0.818c0.032 0 0.054 0.012 0.066 0.037s0.011 0.051 0.001 0.078l-1.098 2.415 1.081 3.087zM19.611 13.658c0 0.076-0.038 0.115-0.114 0.115h-0.933v1.179h0.81c0.076 0 0.115 0.038 0.115 0.115v0.728c0 0.076-0.039 0.115-0.115 0.115h-0.81v1.679h0.933c0.076 0 0.114 0.038 0.114 0.115v0.728c0 0.076-0.038 0.115-0.114 0.115h-1.776c-0.076 0-0.114-0.038-0.114-0.115v-5.501c0-0.076 0.038-0.114 0.114-0.114h1.776c0.076 0 0.114 0.038 0.114 0.114v0.728zM22.764 18.547h-0.745c-0.033 0-0.064-0.011-0.094-0.033s-0.050-0.049-0.060-0.082l-0.598-2.006v2.121l-0.008-0.082c-0.010 0.055-0.047 0.082-0.107 0.082h-0.728c-0.076 0-0.114-0.038-0.114-0.115v-5.502c0-0.076 0.038-0.114 0.114-0.114h1.228c0.142 0 0.276 0.027 0.401 0.082s0.234 0.128 0.328 0.222c0.092 0.092 0.166 0.202 0.221 0.327s0.082 0.259 0.082 0.401v1.334c0 0.202-0.052 0.384-0.156 0.544s-0.241 0.285-0.409 0.373l0.729 2.334c0.016 0.076-0.011 0.115-0.082 0.115zM25.637 14.101c0 0.076-0.036 0.126-0.106 0.147l-0.745 0.196c-0.071 0.022-0.106-0.005-0.106-0.081v-0.533c0-0.055-0.019-0.101-0.058-0.139s-0.086-0.058-0.14-0.058h-0.065c-0.055 0-0.101 0.019-0.14 0.058s-0.058 0.084-0.058 0.139v0.745c0.006 0.060 0.016 0.112 0.033 0.156s0.046 0.088 0.090 0.131l1.073 0.802c0.087 0.076 0.142 0.154 0.168 0.233s0.042 0.168 0.053 0.266v1.408c0 0.142-0.027 0.275-0.081 0.401-0.056 0.125-0.129 0.235-0.222 0.326-0.092 0.092-0.202 0.167-0.326 0.222-0.126 0.055-0.259 0.081-0.402 0.081h-0.311c-0.142 0-0.276-0.026-0.402-0.081s-0.234-0.128-0.327-0.222c-0.093-0.092-0.166-0.202-0.221-0.326s-0.082-0.258-0.082-0.401v-0.787c0-0.076 0.036-0.125 0.106-0.147l0.745-0.197c0.071-0.023 0.106 0.006 0.106 0.082v1.008c0 0.054 0.019 0.1 0.058 0.139 0.039 0.038 0.086 0.057 0.14 0.057h0.065c0.055 0 0.101-0.020 0.14-0.057 0.038-0.039 0.058-0.085 0.058-0.139v-1.081c-0.006-0.071-0.016-0.134-0.033-0.188s-0.049-0.104-0.098-0.148l-1.056-0.81c-0.082-0.076-0.142-0.153-0.176-0.23-0.036-0.076-0.053-0.177-0.053-0.303v-0.982c0-0.142 0.027-0.276 0.082-0.402s0.128-0.234 0.221-0.327c0.093-0.092 0.202-0.166 0.327-0.221s0.258-0.082 0.402-0.082h0.311c0.142 0 0.275 0.028 0.402 0.082 0.125 0.055 0.234 0.128 0.326 0.221s0.166 0.202 0.222 0.327c0.054 0.126 0.081 0.259 0.081 0.402l-0.002 0.311zM31.774 17.39l-4.984 5.028-0.24-0.002v-5.125l0.1-0.1h5.125l-0.001 0.198z" opacity="1" visibility="false"></path>
</g>
<g id="icon-sweatshirt">
	<path class="path1" d="M27.996 13.413l-7.374-2.056c0.945-1.201 1.523-2.768 1.523-4.484 0-3.765-2.757-6.828-6.146-6.828s-6.146 3.063-6.146 6.828c0 1.717 0.578 3.283 1.523 4.484l-7.374 2.056 0.041 0.126h-0.041v16.363h3.471v-11.396h1.552v13.448h13.947v-13.448h1.552v11.396h3.471v-16.363h-0.041l0.042-0.127zM13.198 28.663h-0.558v-4.4h0.558v4.4zM16 12.69c-2.831 0-5.134-2.609-5.134-5.816s2.303-5.816 5.134-5.816c2.831 0 5.134 2.609 5.134 5.816s-2.303 5.816-5.134 5.816zM19.644 28.663h-0.558v-4.4h0.558v4.4z" opacity="1" visibility="false"></path>
</g>
</defs>

<g fill="#000000">
	<use xlink:href="#icon-koozie" transform="translate(0 0)"></use>
	<use xlink:href="#icon-posters" transform="translate(48 0)"></use>
	<use xlink:href="#icon-questions" transform="translate(96 0)"></use>
	<use xlink:href="#icon-shirt" transform="translate(144 0)"></use>
	<use xlink:href="#icon-stickers" transform="translate(192 0)"></use>
	<use xlink:href="#icon-sweatshirt" transform="translate(240 0)"></use>
</g>

</svg>
